<?xml version="1.0" encoding="utf-8"?>
<!-- Generator: Adobe Illustrator 21.1.0, SVG Export Plug-In . SVG Version: 6.00 Build 0)  -->
<svg version="1.1" id="interactions-with-visitors" xmlns="http://www.w3.org/2000/svg" xmlns:xlink="http://www.w3.org/1999/xlink"
	 x="0px" y="0px" viewBox="0 0 287.3 307.3" style="enable-background:new 0 0 287.3 307.3;" xml:space="preserve">
<style type="text/css">
	.st0{fill:#E8F0FA;stroke:#2C83E6;stroke-width:3;stroke-linecap:round;stroke-linejoin:round;}
	.st1{fill:#A0AAB4;stroke:#2C83E6;stroke-width:3;stroke-linecap:round;stroke-linejoin:round;}
	.st2{fill:#F3F3F4;stroke:#2C83E6;stroke-width:3;stroke-linecap:round;stroke-linejoin:round;}
	.st3{fill:none;stroke:#2C83E6;stroke-width:3;stroke-linecap:round;stroke-linejoin:round;}
	.st4{fill:#2C83E6;}
	.st5{fill:#D8E0EA;stroke:#2C83E6;stroke-width:3;stroke-linecap:round;stroke-linejoin:round;}
	.st6{fill:#BEC8D2;stroke:#2C83E6;stroke-width:3;stroke-linecap:round;stroke-linejoin:round;}
</style>
<title>interactions with visitors</title>
<g id="Layer_2">
	<g id="Layer_1-2">
		<g>
			<g>
				<g>
					<circle class="st0" cx="143.6" cy="163.6" r="128.6"/>
					<path class="st1" d="M143.6,59.1c-37.4,0-67.6,30.3-67.6,67.6l0,0v112.6c18.4,0,35.4-9.4,45.2-24.9c-0.6-0.3-1.2-0.6-1.8-0.9
						l-0.8-0.4l-1.2-0.7l-0.8-0.4c-0.6-0.4-1.1-0.7-1.7-1.1l-0.6-0.4l-1.2-0.8l-0.7-0.5l-1.1-0.9l-0.6-0.5c-0.5-0.4-1-0.9-1.5-1.3
						l-0.6-0.6l-1-1l-0.6-0.6c-0.5-0.5-1-1-1.4-1.5l-0.4-0.4c-0.4-0.4-0.7-0.8-1.1-1.2l-0.5-0.6c-0.3-0.4-0.7-0.8-1-1.2l-0.4-0.5
						c-0.4-0.6-0.8-1.1-1.2-1.7l-0.4-0.6c-0.3-0.4-0.6-0.9-0.8-1.3l-0.4-0.6c-0.4-0.6-0.7-1.2-1.1-1.9l-0.2-0.3
						c-0.3-0.5-0.6-1.1-0.8-1.6l-0.3-0.6c-0.2-0.5-0.5-1-0.7-1.6l-0.2-0.5c-0.3-0.7-0.5-1.3-0.8-2l-0.2-0.6
						c-0.2-0.5-0.4-1.1-0.6-1.6l-0.2-0.6c-0.2-0.7-0.4-1.4-0.6-2.1v-0.1c-0.2-0.7-0.3-1.4-0.5-2.1c0-0.2-0.1-0.4-0.1-0.6
						c-0.1-0.6-0.2-1.2-0.3-1.8c0-0.2-0.1-0.3-0.1-0.5c-0.1-0.8-0.2-1.5-0.3-2.3c0-0.2,0-0.4,0-0.5c-0.1-0.6-0.1-1.2-0.1-1.9
						c0-0.2,0-0.4,0-0.7c0-0.8-0.1-1.6-0.1-2.4v-35.8h31.2c4.4,0,8.7-1.8,11.8-4.9l8.3-8.3l8.3,8.3c3.1,3.1,7.4,4.9,11.8,4.9H195
						v35.8c0,0.8,0,1.6-0.1,2.4c0,0.2,0,0.4,0,0.7c0,0.6-0.1,1.2-0.1,1.9c0,0.2,0,0.4,0,0.5c-0.1,0.8-0.2,1.5-0.3,2.3
						c0,0.2-0.1,0.3-0.1,0.5c-0.1,0.6-0.2,1.2-0.3,1.8c0,0.2-0.1,0.4-0.1,0.6c-0.1,0.7-0.3,1.4-0.5,2.1v0.1
						c-0.2,0.7-0.4,1.4-0.6,2.1l-0.2,0.6c-0.2,0.5-0.4,1.1-0.6,1.6l-0.2,0.6c-0.3,0.7-0.5,1.3-0.8,2l-0.2,0.5
						c-0.2,0.5-0.5,1-0.7,1.6l-0.3,0.6c-0.3,0.6-0.6,1.1-0.8,1.6l-0.2,0.3c-0.3,0.6-0.7,1.2-1.1,1.9l-0.4,0.6
						c-0.3,0.4-0.6,0.9-0.8,1.3l-0.4,0.6c-0.4,0.6-0.8,1.1-1.2,1.7l-0.4,0.5c-0.3,0.4-0.6,0.8-1,1.2l-0.5,0.6
						c-0.3,0.4-0.7,0.8-1.1,1.2l-0.4,0.4c-0.5,0.5-0.9,1-1.4,1.5l-0.6,0.6l-1,1l-0.6,0.6c-0.5,0.4-1,0.9-1.5,1.3l-0.6,0.5l-1.1,0.9
						l-0.7,0.5l-1.2,0.8l-0.6,0.4c-0.6,0.4-1.1,0.7-1.7,1.1l-0.8,0.4l-1.2,0.7l-0.8,0.4c-0.6,0.3-1.2,0.6-1.8,0.9
						c9.8,15.5,26.9,25,45.2,24.9V126.7c0-37.4-30.3-67.6-67.6-67.6C143.7,59.1,143.7,59.1,143.6,59.1z"/>
					<path class="st2" d="M166.6,132.4h-2.8c-4.4,0-8.7-1.8-11.8-4.9l-8.3-8.3l-8.3,8.3c-3.1,3.1-7.4,4.9-11.8,4.9H92.3v35.8
						c0,28.3,23,51.3,51.3,51.3l0,0l0,0c28.3,0,51.3-23,51.4-51.3c0,0,0,0,0,0v-35.8H166.6z"/>
					<path class="st3" d="M92.3,132.4v-5.2c0-13.4,5.2-26.2,14.5-35.8"/>
					<g>
						<circle class="st4" cx="117.3" cy="163.4" r="4.3"/>
						<circle class="st4" cx="170" cy="163.4" r="4.3"/>
					</g>
					<path class="st2" d="M195,138.3v29.9c0,3.7-0.4,7.4-1.2,10.9h1.2c9,0,16.3-7.3,16.3-16.3v-8.2C211.3,145.6,204,138.3,195,138.3
						z"/>
					<path class="st2" d="M92.3,168.2v-29.9c-9,0-16.3,7.3-16.3,16.3v0v8.2c0,9,7.3,16.3,16.3,16.3h1.2
						C92.7,175.5,92.3,171.8,92.3,168.2z"/>
					<path class="st5" d="M143.6,219.5L143.6,219.5c-7.4,0-14.7-1.6-21.4-4.7v36.5c0,11.8,9.6,21.4,21.4,21.4
						c11.8,0,21.4-9.6,21.4-21.4v-36.5C158.3,217.9,151,219.5,143.6,219.5z"/>
					<path class="st6" d="M187.3,246.1H165v5.3c0,11.8-9.6,21.4-21.4,21.4c-11.8,0-21.4-9.6-21.4-21.4v-5.3H100
						c-12.3,0-22.2,9.9-22.2,22.2l0,0v5.9c40.6,24.2,91.2,24.2,131.8,0v-5.9C209.6,256,199.6,246.1,187.3,246.1
						C187.3,246.1,187.3,246.1,187.3,246.1z"/>
					<path class="st3" d="M156.5,187.1c0,7.1-5.7,12.9-12.8,12.9c0,0,0,0,0,0"/>
				</g>
			</g>
		</g>
	</g>
</g>
</svg>
