<svg xmlns="http://www.w3.org/2000/svg" viewBox="0 0 138.2 138.2">
  <defs>
    <style>
      .cls-1 {
        fill: #fff;
      }

      .cls-2 {
        fill: #2c83e6;
      }

      .cls-3 {
        fill: #d8e0ea;
      }

      .cls-4 {
        fill: #e8f0fa;
      }
    </style>
  </defs>
  <title>chatbot_facebook</title>
  <g id="Layer_2" data-name="Layer 2">
    <g id="Layer_1-2" data-name="Layer 1">
      <g id="Layer_2-2" data-name="Layer 2">
        <g id="Isolation_Mode" data-name="Isolation Mode">
          <circle class="cls-1" cx="69.1" cy="69.1" r="69.1"/>
        </g>
      </g>
      <g>
        <path class="cls-2" d="M69.1,7.51A61.59,61.59,0,1,1,7.51,69.1,61.66,61.66,0,0,1,69.1,7.51m0-1.81a63.4,63.4,0,1,0,63.4,63.4A63.4,63.4,0,0,0,69.1,5.7Z"/>
        <g>
          <path class="cls-3" d="M69.1,131.59A62,62,0,0,1,32,119.37V41.94a6.36,6.36,0,0,1,6.35-6.35H99.88a6.36,6.36,0,0,1,6.35,6.35v77.43A62,62,0,0,1,69.1,131.59Z"/>
          <path class="cls-2" d="M99.88,36.49a5.45,5.45,0,0,1,5.45,5.45v77a61.6,61.6,0,0,1-72.46,0v-77a5.45,5.45,0,0,1,5.45-5.45H99.88m0-1.81H38.32a7.26,7.26,0,0,0-7.26,7.26v77.88a63.4,63.4,0,0,0,76.08,0V41.94a7.26,7.26,0,0,0-7.26-7.26Z"/>
        </g>
        <g>
          <path class="cls-4" d="M69.1,131.59A62.53,62.53,0,0,1,39.21,124V47.36a.91.91,0,0,1,.91-.91h58a.91.91,0,0,1,.91.91V124A62.53,62.53,0,0,1,69.1,131.59Z"/>
          <path class="cls-2" d="M98.08,47.36v76.08a61.59,61.59,0,0,1-58,0V47.36h58m0-1.81h-58a1.81,1.81,0,0,0-1.81,1.81v77.16a63.39,63.39,0,0,0,61.59,0V47.36a1.81,1.81,0,0,0-1.81-1.81Z"/>
        </g>
        <g>
          <path class="cls-2" d="M76.35,42.83H65.48a.91.91,0,0,1,0-1.81H76.35a.91.91,0,1,1,0,1.81Z"/>
          <path class="cls-2" d="M61.85,42.83A.9.9,0,0,1,61,42h0a.91.91,0,1,1,.95.86Z"/>
        </g>
        <g>
          <circle class="cls-1" cx="69.1" cy="116.2" r="8.15"/>
          <path class="cls-2" d="M69.1,109a7.25,7.25,0,1,1-7.25,7.25A7.25,7.25,0,0,1,69.1,109m0-1.81a9.06,9.06,0,1,0,9.06,9.06,9.06,9.06,0,0,0-9.06-9.06Z"/>
        </g>
        <g>
          <path class="cls-2" d="M72.72,118.91a.9.9,0,0,1-.64-.27L68.46,115a.91.91,0,0,1,1.28-1.28l3.62,3.62a.91.91,0,0,1-.64,1.55Z"/>
          <path class="cls-2" d="M65.48,118.91a.91.91,0,0,1-.64-1.55l3.62-3.62A.91.91,0,1,1,69.74,115l-3.62,3.62A.9.9,0,0,1,65.48,118.91Z"/>
        </g>
        <g>
          <path class="cls-1" d="M69.1,95.37a19,19,0,1,1,19-19A19,19,0,0,1,69.1,95.37Z"/>
          <path class="cls-2" d="M69.1,58.23A18.11,18.11,0,1,1,51,76.35,18.13,18.13,0,0,1,69.1,58.23m0-1.81A19.93,19.93,0,1,0,89,76.35,19.93,19.93,0,0,0,69.1,56.42Z"/>
        </g>
        <path class="cls-2" d="M66.93,85.4h3.15V77.53H74V74.38H70.08V71.62a1.16,1.16,0,0,1,1.18-1.18h3.15V67.29H70.87a4.36,4.36,0,0,0-3.94,4.33v2.76H63.78v3.15h3.15Z"/>
        <path class="cls-2" d="M69.1,106.2a.91.91,0,0,1-.91-.91V98.12a.91.91,0,0,1,1.81,0v7.17A.91.91,0,0,1,69.1,106.2Z"/>
      </g>
    </g>
  </g>
</svg>
