<svg xmlns="http://www.w3.org/2000/svg" viewBox="0 0 140 140">
  <defs>
    <style>
      .cls-1 {
        fill: #2c83e6;
      }

      .cls-2 {
        fill: #d8e0ea;
      }

      .cls-3 {
        fill: #e8f0fa;
      }

      .cls-4 {
        fill: none;
      }

      .cls-4, .cls-6 {
        stroke: #2c83e6;
        stroke-linecap: round;
        stroke-linejoin: round;
        stroke-width: 2px;
      }

      .cls-5, .cls-6 {
        fill: #bec8d2;
      }

      .cls-7 {
        fill: #fff;
      }
    </style>
  </defs>
  <title>construction</title>
  <g id="Layer_2" data-name="Layer 2">
    <g id="Layer_1-2" data-name="Layer 1">
      <path class="cls-1" d="M70,2A68,68,0,1,1,2,70,68.08,68.08,0,0,1,70,2m0-2a70,70,0,1,0,70,70A70,70,0,0,0,70,0Z"/>
      <g>
        <path class="cls-2" d="M70,139a68.4,68.4,0,0,1-41-13.5V40a7,7,0,0,1,7-7h68a7,7,0,0,1,7,7V125.5A68.4,68.4,0,0,1,70,139Z"/>
        <path class="cls-1" d="M104,34a6,6,0,0,1,6,6v85a68,68,0,0,1-80,0V40a6,6,0,0,1,6-6h68m0-2H36a8,8,0,0,0-8,8v86a70,70,0,0,0,84,0V40a8,8,0,0,0-8-8Z"/>
      </g>
      <g>
        <path class="cls-3" d="M70,139a69,69,0,0,1-33-8.4V46a1,1,0,0,1,1-1h64a1,1,0,0,1,1,1v84.6A69,69,0,0,1,70,139Z"/>
        <path class="cls-1" d="M102,46v84a68,68,0,0,1-64,0V46h64m0-2H38a2,2,0,0,0-2,2v85.19a70,70,0,0,0,68,0V46a2,2,0,0,0-2-2Z"/>
      </g>
      <g>
        <line class="cls-4" x1="78" y1="40" x2="66" y2="40"/>
        <line class="cls-4" x1="62" y1="40" x2="62" y2="39.99"/>
      </g>
      <g>
        <g>
          <path class="cls-5" d="M46.32,74A1.3,1.3,0,0,1,45,72.69V60.33A3.34,3.34,0,0,1,48.33,57H83.67A3.34,3.34,0,0,1,87,60.33V66a3.34,3.34,0,0,1-3.33,3.33H52.92a1,1,0,0,0-.62.22l-5,4-.08.07A1.26,1.26,0,0,1,46.32,74Z"/>
          <path class="cls-1" d="M83.67,58A2.34,2.34,0,0,1,86,60.33V66a2.34,2.34,0,0,1-2.33,2.33H52.92a2,2,0,0,0-1.25.44l-5,4-.17.15a.26.26,0,0,1-.2.09.31.31,0,0,1-.32-.31V60.33A2.34,2.34,0,0,1,48.33,58H83.67m0-2H48.33A4.33,4.33,0,0,0,44,60.33V72.69A2.3,2.3,0,0,0,46.32,75a2.25,2.25,0,0,0,1.61-.68l5-4H83.67A4.33,4.33,0,0,0,88,66V60.33A4.33,4.33,0,0,0,83.67,56Z"/>
        </g>
        <line class="cls-6" x1="52" y1="63" x2="80" y2="63"/>
      </g>
      <g>
        <g>
          <path class="cls-7" d="M104.68,94a1.26,1.26,0,0,1-.9-.39l-4-4a1,1,0,0,0-.71-.29H80.33A3.34,3.34,0,0,1,77,86V80.33A3.34,3.34,0,0,1,80.33,77h22.33A3.34,3.34,0,0,1,106,80.33V92.69a1.26,1.26,0,0,1-.4.94,1.36,1.36,0,0,1-.92.36Z"/>
          <path class="cls-1" d="M102.67,78A2.34,2.34,0,0,1,105,80.33V92.69a.31.31,0,0,1-.32.31.26.26,0,0,1-.2-.09l-4-4a2,2,0,0,0-1.41-.59H80.33A2.34,2.34,0,0,1,78,86V80.33A2.34,2.34,0,0,1,80.33,78h22.33m0-2H80.33A4.33,4.33,0,0,0,76,80.33V86a4.33,4.33,0,0,0,4.33,4.33H99.08l4,4a2.25,2.25,0,0,0,1.61.68A2.3,2.3,0,0,0,107,92.69V80.33A4.33,4.33,0,0,0,102.67,76Z"/>
        </g>
        <line class="cls-4" x1="99" y1="83" x2="84" y2="83"/>
      </g>
      <g>
        <g>
          <path class="cls-5" d="M26.32,114A1.3,1.3,0,0,1,25,112.69V100.33A3.34,3.34,0,0,1,28.33,97H63.67A3.34,3.34,0,0,1,67,100.33V106a3.34,3.34,0,0,1-3.33,3.33H31.92a1,1,0,0,0-.71.29l-4,4A1.26,1.26,0,0,1,26.32,114Z"/>
          <path class="cls-1" d="M63.67,98A2.34,2.34,0,0,1,66,100.33V106a2.34,2.34,0,0,1-2.33,2.33H31.92a2,2,0,0,0-1.41.59l-4,4a.26.26,0,0,1-.2.09.31.31,0,0,1-.32-.31V100.33A2.34,2.34,0,0,1,28.33,98H63.67m0-2H28.33A4.33,4.33,0,0,0,24,100.33v12.36A2.3,2.3,0,0,0,26.32,115a2.25,2.25,0,0,0,1.61-.68l4-4H63.67A4.33,4.33,0,0,0,68,106v-5.67A4.33,4.33,0,0,0,63.67,96Z"/>
        </g>
        <line class="cls-6" x1="32" y1="103" x2="60" y2="103"/>
      </g>
      <g>
        <g>
          <path class="cls-7" d="M93.68,134a1.26,1.26,0,0,1-.9-.39l-4-4a1,1,0,0,0-.71-.29H69.33A3.34,3.34,0,0,1,66,126v-5.67A3.34,3.34,0,0,1,69.33,117H91.67A3.34,3.34,0,0,1,95,120.33v12.36a1.26,1.26,0,0,1-.4.94,1.36,1.36,0,0,1-.92.36Z"/>
          <path class="cls-1" d="M91.67,118A2.34,2.34,0,0,1,94,120.33v12.36a.31.31,0,0,1-.32.31.26.26,0,0,1-.2-.09l-4-4a2,2,0,0,0-1.41-.59H69.33A2.34,2.34,0,0,1,67,126v-5.67A2.34,2.34,0,0,1,69.33,118H91.67m0-2H69.33A4.33,4.33,0,0,0,65,120.33V126a4.33,4.33,0,0,0,4.33,4.33H88.08l4,4a2.25,2.25,0,0,0,1.61.68A2.3,2.3,0,0,0,96,132.69V120.33A4.33,4.33,0,0,0,91.67,116Z"/>
        </g>
        <line class="cls-4" x1="88" y1="123" x2="73" y2="123"/>
      </g>
    </g>
  </g>
</svg>
