<svg xmlns="http://www.w3.org/2000/svg" viewBox="0 0 138.2 138.2">
  <defs>
    <style>
      .cls-1 {
        fill: #fff;
      }

      .cls-2 {
        fill: #2c83e6;
      }

      .cls-3 {
        fill: #e8f0fa;
      }

      .cls-4 {
        fill: #d8e0ea;
      }
    </style>
  </defs>
  <title>data_protection</title>
  <g id="Layer_2" data-name="Layer 2">
    <g id="Layer_1-2" data-name="Layer 1">
      <g id="Layer_2-2" data-name="Layer 2">
        <g id="Isolation_Mode" data-name="Isolation Mode">
          <circle class="cls-1" cx="69.1" cy="69.1" r="69.1"/>
        </g>
      </g>
      <g>
        <path class="cls-2" d="M69.1,7.51A61.59,61.59,0,1,1,7.51,69.1,61.66,61.66,0,0,1,69.1,7.51m0-1.81a63.4,63.4,0,1,0,63.4,63.4A63.4,63.4,0,0,0,69.1,5.7Z"/>
        <g>
          <path class="cls-3" d="M38.93,39.09,65.64,28.19a8.36,8.36,0,0,1,3.46-.75h0a8.36,8.36,0,0,1,3.46.75L99.27,39.09a7.25,7.25,0,0,1,4.25,6.6V70.91c0,25.31-23.14,38.71-30.85,42.62a7.88,7.88,0,0,1-3.57.86h0a7.88,7.88,0,0,1-3.57-.86c-7.7-3.91-30.85-17.31-30.85-42.62V45.69A7.25,7.25,0,0,1,38.93,39.09Z"/>
          <path class="cls-2" d="M69.1,115.29a8.84,8.84,0,0,1-4-1c-9.42-4.78-31.34-18.58-31.34-43.42V45.69a8.17,8.17,0,0,1,4.78-7.42h0L65.3,27.35a9.34,9.34,0,0,1,7.64,0L99.61,38.25a8.18,8.18,0,0,1,4.81,7.43V70.91c0,24.84-21.92,38.64-31.34,43.42A8.84,8.84,0,0,1,69.1,115.29ZM39.29,39.92a6.36,6.36,0,0,0-3.7,5.77V70.91c0,23.84,21.23,37.18,30.35,41.81a7.07,7.07,0,0,0,6.32,0c9.13-4.63,30.35-18,30.35-41.81V45.69a6.36,6.36,0,0,0-3.72-5.77L72.22,29A7.46,7.46,0,0,0,66,29Z"/>
        </g>
        <g>
          <path class="cls-1" d="M69.1,80.87a10,10,0,0,1-10-10V60a10,10,0,0,1,19.93,0V70.91A10,10,0,0,1,69.1,80.87Zm0-27.17A6.35,6.35,0,0,0,62.76,60V70.91a6.34,6.34,0,0,0,12.68,0V60A6.35,6.35,0,0,0,69.1,53.7Z"/>
          <path class="cls-2" d="M69.1,51A9.07,9.07,0,0,1,78.16,60V70.91a9.06,9.06,0,0,1-18.11,0V60A9.07,9.07,0,0,1,69.1,51m0,27.17a7.25,7.25,0,0,0,7.25-7.25V60a7.25,7.25,0,0,0-14.49,0V70.91a7.25,7.25,0,0,0,7.25,7.25m0-29A10.87,10.87,0,0,0,58.23,60V70.91a10.87,10.87,0,0,0,21.74,0V60A10.87,10.87,0,0,0,69.1,49.17Zm0,27.17a5.43,5.43,0,0,1-5.43-5.43V60a5.43,5.43,0,1,1,10.87,0V70.91a5.43,5.43,0,0,1-5.43,5.43Z"/>
        </g>
        <g>
          <rect class="cls-1" x="55.51" y="64.57" width="27.17" height="19.93" rx="2.72" ry="2.72"/>
          <path class="cls-2" d="M80,65.48a1.81,1.81,0,0,1,1.81,1.81V81.78A1.81,1.81,0,0,1,80,83.59H58.23a1.81,1.81,0,0,1-1.81-1.81V67.29a1.81,1.81,0,0,1,1.81-1.81H80m0-1.81H58.23a3.62,3.62,0,0,0-3.62,3.62V81.78a3.62,3.62,0,0,0,3.62,3.62H80a3.62,3.62,0,0,0,3.62-3.62V67.29A3.62,3.62,0,0,0,80,63.67Z"/>
        </g>
        <g>
          <path class="cls-4" d="M66.52,79.06,67.1,75a.91.91,0,0,0-.17-.67,2.69,2.69,0,0,1-.55-1.62,2.72,2.72,0,0,1,5.43,0,2.69,2.69,0,0,1-.55,1.62.91.91,0,0,0-.17.67l.58,4.06Z"/>
          <path class="cls-2" d="M69.1,70.91a1.8,1.8,0,0,1,1.44,2.88,1.81,1.81,0,0,0-.34,1.34l.43,3H67.57l.43-3a1.81,1.81,0,0,0-.34-1.34,1.8,1.8,0,0,1,1.44-2.88m0-1.81a3.61,3.61,0,0,0-2.9,5.78L65.48,80h7.25L72,74.88a3.61,3.61,0,0,0-2.9-5.78Z"/>
        </g>
      </g>
    </g>
  </g>
</svg>
