<svg xmlns="http://www.w3.org/2000/svg" viewBox="0 0 138.2 138.2">
  <defs>
    <style>
      .cls-1 {
        fill: #fff;
      }

      .cls-2 {
        fill: #2c83e6;
      }

      .cls-3 {
        fill: #d8e0ea;
      }

      .cls-4 {
        fill: #e8f0fa;
      }
    </style>
  </defs>
  <title>face_mess_skype</title>
  <g id="Layer_2" data-name="Layer 2">
    <g id="Layer_1-2" data-name="Layer 1">
      <g id="Layer_2-2" data-name="Layer 2">
        <g id="Isolation_Mode" data-name="Isolation Mode">
          <circle class="cls-1" cx="69.1" cy="69.1" r="69.1"/>
        </g>
      </g>
      <g>
        <path class="cls-2" d="M69.1,7.51A61.59,61.59,0,1,1,7.51,69.1,61.66,61.66,0,0,1,69.1,7.51m0-1.81a63.4,63.4,0,1,0,63.4,63.4A63.4,63.4,0,0,0,69.1,5.7Z"/>
        <g>
          <path class="cls-3" d="M69.1,131.59A62,62,0,0,1,32,119.37V41.94a6.36,6.36,0,0,1,6.35-6.35H99.88a6.36,6.36,0,0,1,6.35,6.35v77.43A62,62,0,0,1,69.1,131.59Z"/>
          <path class="cls-2" d="M99.88,36.49a5.45,5.45,0,0,1,5.45,5.45v77a61.6,61.6,0,0,1-72.46,0v-77a5.45,5.45,0,0,1,5.45-5.45H99.88m0-1.81H38.32a7.26,7.26,0,0,0-7.26,7.26v77.88a63.4,63.4,0,0,0,76.08,0V41.94a7.26,7.26,0,0,0-7.26-7.26Z"/>
        </g>
        <g>
          <path class="cls-4" d="M69.1,131.59A62.53,62.53,0,0,1,39.21,124V47.36a.91.91,0,0,1,.91-.91h58a.91.91,0,0,1,.91.91V124A62.53,62.53,0,0,1,69.1,131.59Z"/>
          <path class="cls-2" d="M98.08,47.36v76.08a61.59,61.59,0,0,1-58,0V47.36h58m0-1.81h-58a1.81,1.81,0,0,0-1.81,1.81v77.16a63.39,63.39,0,0,0,61.59,0V47.36a1.81,1.81,0,0,0-1.81-1.81Z"/>
        </g>
        <g>
          <path class="cls-2" d="M76.35,42.83H65.48a.91.91,0,0,1,0-1.81H76.35a.91.91,0,1,1,0,1.81Z"/>
          <path class="cls-2" d="M61.85,42.83a.9.9,0,0,1-.9-.86h0a.91.91,0,1,1,.95.87Z"/>
        </g>
        <g>
          <path class="cls-1" d="M40.12,91.74a19,19,0,1,1,19-19A19,19,0,0,1,40.12,91.74Z"/>
          <path class="cls-2" d="M40.12,54.61A18.11,18.11,0,1,1,22,72.72,18.13,18.13,0,0,1,40.12,54.61m0-1.81A19.93,19.93,0,1,0,60,72.72,19.93,19.93,0,0,0,40.12,52.8Z"/>
        </g>
        <g>
          <path class="cls-1" d="M98.08,91.74a19,19,0,1,1,19-19A19,19,0,0,1,98.08,91.74Z"/>
          <path class="cls-2" d="M98.08,54.61A18.11,18.11,0,1,1,80,72.72,18.13,18.13,0,0,1,98.08,54.61m0-1.81A19.93,19.93,0,1,0,118,72.72,19.93,19.93,0,0,0,98.08,52.8Z"/>
        </g>
        <g>
          <path class="cls-2" d="M94.5,63.7h1a10.5,10.5,0,0,0,3,.5,3.27,3.27,0,0,1,1,.09,8.61,8.61,0,0,1,7.05,9.35,2.22,2.22,0,0,0,.06.78,5.85,5.85,0,0,1-4,7.18c-.32.09-.65.14-1,.22h-1a11.6,11.6,0,0,0-2.43-.39,6.78,6.78,0,0,1-3.79-.86,8.51,8.51,0,0,1-4.67-8.14,3.2,3.2,0,0,0-.12-1.06A5.85,5.85,0,0,1,93.3,64C93.69,63.85,94.1,63.79,94.5,63.7Zm10.18,9.08c0-.4-.06-.81-.12-1.22a6.51,6.51,0,0,0-7.22-5.38.94.94,0,0,1-.53-.09A3.74,3.74,0,0,0,94,65.77a3.89,3.89,0,0,0-2.41,5.42,1.33,1.33,0,0,1,.12.53,19.55,19.55,0,0,0,0,2.39A6.53,6.53,0,0,0,99,79.46a1.18,1.18,0,0,1,.6.09,3.65,3.65,0,0,0,2.47.19,3.93,3.93,0,0,0,2.58-5.09,2.39,2.39,0,0,1-.1-.78C104.59,73.52,104.65,73.16,104.68,72.78Z"/>
          <path class="cls-1" d="M104.68,72.78c0,.38-.09.74-.1,1.1a2.39,2.39,0,0,0,.1.78,3.93,3.93,0,0,1-2.58,5.09,3.65,3.65,0,0,1-2.47-.19,1.18,1.18,0,0,0-.6-.09,6.53,6.53,0,0,1-7.25-5.34,19.55,19.55,0,0,1,0-2.39,1.33,1.33,0,0,0-.12-.53A3.89,3.89,0,0,1,94,65.77a3.74,3.74,0,0,1,2.77.31.94.94,0,0,0,.53.09,6.51,6.51,0,0,1,7.22,5.38C104.62,72,104.64,72.38,104.68,72.78ZM98.06,77.4a4.48,4.48,0,0,0,3-.91c1.1-.92,1.36-3.36-.46-4.11-.8-.33-1.65-.53-2.47-.79a6.82,6.82,0,0,1-1.21-.41c-.65-.35-.64-.91,0-1.31a1.93,1.93,0,0,1,2.74.67,1.47,1.47,0,0,0,.28.43,1.23,1.23,0,0,0,.57.31.94.94,0,0,0,1-1.3,2.27,2.27,0,0,0-1.33-1.43,5,5,0,0,0-4.28.05,2.18,2.18,0,0,0-1.37,2.13,2.15,2.15,0,0,0,1.42,2.05,17.47,17.47,0,0,0,1.79.58c.52.16,1.06.28,1.56.48a.88.88,0,0,1,.61.9,1,1,0,0,1-.65.9,2.57,2.57,0,0,1-1.64.22,1.45,1.45,0,0,1-1.14-.79c-.14-.29-.29-.58-.46-.85a.92.92,0,0,0-1-.36.88.88,0,0,0-.64.87A2.27,2.27,0,0,0,95,76.22,3.92,3.92,0,0,0,98.06,77.4Z"/>
          <path class="cls-2" d="M98.06,77.4A3.92,3.92,0,0,1,95,76.22a2.27,2.27,0,0,1-.63-1.48.88.88,0,0,1,.64-.87.92.92,0,0,1,1,.36c.17.27.31.56.46.85a1.45,1.45,0,0,0,1.14.79,2.57,2.57,0,0,0,1.64-.22,1,1,0,0,0,.65-.9.88.88,0,0,0-.61-.9c-.5-.2-1-.32-1.56-.48a17.47,17.47,0,0,1-1.79-.58,2.15,2.15,0,0,1-1.42-2.05,2.18,2.18,0,0,1,1.37-2.13,5,5,0,0,1,4.28-.05A2.27,2.27,0,0,1,101.48,70a.94.94,0,0,1-1,1.3,1.23,1.23,0,0,1-.57-.31,1.47,1.47,0,0,1-.28-.43,1.93,1.93,0,0,0-2.74-.67c-.61.4-.62,1,0,1.31a6.82,6.82,0,0,0,1.21.41c.83.26,1.68.46,2.47.79,1.81.75,1.56,3.2.46,4.11A4.48,4.48,0,0,1,98.06,77.4Z"/>
        </g>
        <g>
          <g>
            <path class="cls-1" d="M35.34,78.6a.9.9,0,0,0-.36-.72A7.28,7.28,0,0,1,32,72c0-4.14,3.66-7.51,8.15-7.51S48.27,67.9,48.27,72s-3.66,7.51-8.15,7.51A8.82,8.82,0,0,1,38,79.3l-.21,0a.91.91,0,0,0-.41.1l-2.07,1Z"/>
            <path class="cls-2" d="M40.12,65.44c4,0,7.25,3,7.25,6.61s-3.25,6.61-7.25,6.61a7.92,7.92,0,0,1-1.87-.23,1.81,1.81,0,0,0-1.25.14l-.76.38V78.6a1.81,1.81,0,0,0-.72-1.45A6.38,6.38,0,0,1,32.87,72c0-3.64,3.25-6.61,7.25-6.61m0-1.81c-5,0-9.06,3.77-9.06,8.42a8.19,8.19,0,0,0,3.37,6.55v3.3l3.39-1.71a9.69,9.69,0,0,0,2.3.28c5,0,9.06-3.77,9.06-8.42s-4.06-8.42-9.06-8.42Z"/>
          </g>
          <path class="cls-2" d="M34.85,74.65,39,70.21a.38.38,0,0,1,.56,0l1.63,1.74a.38.38,0,0,0,.46.07l3.75-2.11-4.17,4.5a.38.38,0,0,1-.56,0l-1.58-1.74a.38.38,0,0,0-.47-.08Z"/>
        </g>
        <g>
          <path class="cls-1" d="M69.1,117.16a4.86,4.86,0,0,1-1.17-.15c-.08,0-.11,0-.13-.2,0-.41-.09-.83-.12-1.24a1.35,1.35,0,0,0-.93-1.23c-.74-.28-1.52-.6-2.31-1a1.52,1.52,0,0,0-.63-.15,1.32,1.32,0,0,0-.87.33l-.91.75a.55.55,0,0,1-.22.13.42.42,0,0,1-.16-.07,5,5,0,0,1-1.58-1.57.48.48,0,0,1-.08-.16.82.82,0,0,1,.11-.18c.26-.33.53-.66.81-1a1.25,1.25,0,0,0,.14-1.52,8.39,8.39,0,0,1-.9-2.17,1.31,1.31,0,0,0-1.21-1l-1.21-.11c-.23,0-.24,0-.28-.19a4.86,4.86,0,0,1,0-2.26.46.46,0,0,1,.06-.17h0a.66.66,0,0,1,.23-.05L59,103.9a1.25,1.25,0,0,0,1.17-1,8.57,8.57,0,0,1,.91-2.18,1.3,1.3,0,0,0-.13-1.56l-.75-.92A.62.62,0,0,1,60,98a.52.52,0,0,1,.1-.21,5.16,5.16,0,0,1,1.52-1.52l.17-.07a1.47,1.47,0,0,1,.23.13c.32.23.63.5.9.74a1.32,1.32,0,0,0,.89.36,1.5,1.5,0,0,0,.61-.14q1.15-.51,2.32-1a1.31,1.31,0,0,0,.91-1.18c0-.36.06-.72.1-1.08l0-.18c0-.22,0-.22.18-.25a5.07,5.07,0,0,1,1.13-.13,5.13,5.13,0,0,1,1.15.13c.16,0,.18,0,.21.31s.08.77.11,1.16a1.37,1.37,0,0,0,1,1.24c.71.27,1.46.57,2.21.91a1.65,1.65,0,0,0,.68.16,1.38,1.38,0,0,0,1-.4c.2-.19.42-.36.64-.53l.26-.21a.34.34,0,0,1,.17-.09.27.27,0,0,1,.12,0,5.06,5.06,0,0,1,1.62,1.63c.06.1.09.15,0,.31l-.24.29-.52.63a1.41,1.41,0,0,0-.21,1.61c.29.62.57,1.29.9,2.12a1.34,1.34,0,0,0,1.36,1c.41,0,.82.08,1.22.13.11,0,.12,0,.15.13a5,5,0,0,1,0,2.34c0,.12,0,.15-.27.17l-1.2.11a1.39,1.39,0,0,0-1.23,1c-.25.67-.54,1.38-.92,2.24a1.37,1.37,0,0,0,.23,1.59c.2.22.39.46.58.7l.18.23c.13.16.1.19,0,.28a5,5,0,0,1-1.63,1.62.3.3,0,0,1-.13.05.36.36,0,0,1-.18-.1l-.33-.27-.6-.5a1.36,1.36,0,0,0-.9-.35,1.57,1.57,0,0,0-.65.15c-.71.32-1.48.64-2.28.95a1.34,1.34,0,0,0-.92,1.18c0,.44-.09.89-.14,1.33,0,.12,0,.13-.12.15A4.84,4.84,0,0,1,69.1,117.16Zm0-18.12a6.31,6.31,0,0,0,0,12.62h0a6.33,6.33,0,0,0,6.32-6.29A6.29,6.29,0,0,0,69.16,99Z"/>
          <path class="cls-2" d="M68.7,94h0m.4.44a4.12,4.12,0,0,1,.5,0q0,.36.06.73a2.28,2.28,0,0,0,1.54,2c.69.26,1.42.56,2.16.89a2.54,2.54,0,0,0,1.05.24A2.29,2.29,0,0,0,76,97.72c.14-.13.3-.26.47-.4a4.13,4.13,0,0,1,.67.68l-.45.55a2.32,2.32,0,0,0-.34,2.58c.28.61.56,1.26.88,2.08a2.21,2.21,0,0,0,2.13,1.6l.64.06a4.08,4.08,0,0,1,0,.95l-.77.07a2.3,2.3,0,0,0-2,1.55c-.24.64-.52,1.34-.9,2.19a2.29,2.29,0,0,0,.39,2.57c.14.15.28.33.43.51a4.11,4.11,0,0,1-.68.67l-.57-.47a2.26,2.26,0,0,0-1.48-.56,2.45,2.45,0,0,0-1,.24c-.7.32-1.43.62-2.23.93a2.25,2.25,0,0,0-1.5,1.95q0,.39-.08.77a3.85,3.85,0,0,1-.5,0l-.45,0c0-.24,0-.48-.06-.72a2.25,2.25,0,0,0-1.52-2c-.72-.27-1.48-.59-2.25-.93a2.4,2.4,0,0,0-1-.23,2.23,2.23,0,0,0-1.45.54l-.59.49a4.08,4.08,0,0,1-.68-.67l.51-.6a2.16,2.16,0,0,0,.23-2.57,7.52,7.52,0,0,1-.81-1.94,2.21,2.21,0,0,0-2-1.7l-.35,0-.42,0a4,4,0,0,1,0-.95l.78-.07a2.16,2.16,0,0,0,2-1.64,7.56,7.56,0,0,1,.81-1.95,2.21,2.21,0,0,0-.21-2.6l-.5-.61a4.22,4.22,0,0,1,.68-.68l.55.47a2.23,2.23,0,0,0,1.49.58,2.38,2.38,0,0,0,1-.22c.75-.33,1.52-.65,2.29-.95a2.23,2.23,0,0,0,1.48-2c0-.26,0-.52.07-.78l.45,0m0,18.11a7.23,7.23,0,0,0,7.2-7.19,7.2,7.2,0,0,0-7.21-7.24,7.21,7.21,0,0,0,0,14.43h0m-10.8-8.14h0M69.1,92.65a6,6,0,0,0-1.33.15,1.06,1.06,0,0,0-.88,1c0,.43-.09.85-.12,1.28a.43.43,0,0,1-.33.4q-1.19.46-2.36,1a.62.62,0,0,1-.25.06.43.43,0,0,1-.29-.13c-.31-.28-.63-.55-1-.8a5.51,5.51,0,0,0-.71-.37,4.15,4.15,0,0,0-.72.29,6,6,0,0,0-1.78,1.78,1.12,1.12,0,0,0,.1,1.5l.76.93a.4.4,0,0,1,0,.52,9.43,9.43,0,0,0-1,2.41.35.35,0,0,1-.36.3l-1.28.12a1.07,1.07,0,0,0-1.07.92,5.77,5.77,0,0,0,0,2.68,1.08,1.08,0,0,0,1.08.87l1.19.11a.41.41,0,0,1,.42.35,9.3,9.3,0,0,0,1,2.41.35.35,0,0,1,0,.47q-.43.5-.83,1a1,1,0,0,0-.09,1.38,5.9,5.9,0,0,0,1.86,1.85,1.21,1.21,0,0,0,.64.21,1.25,1.25,0,0,0,.79-.33l.93-.76a.43.43,0,0,1,.28-.12.63.63,0,0,1,.26.07c.78.35,1.56.68,2.36,1a.45.45,0,0,1,.35.44c0,.43.07.85.12,1.28a1,1,0,0,0,.81,1,5.7,5.7,0,0,0,2.83,0,1,1,0,0,0,.79-.91c.06-.45.1-.9.14-1.36a.45.45,0,0,1,.34-.42c.79-.3,1.57-.62,2.33-1a.69.69,0,0,1,.28-.07.47.47,0,0,1,.31.13l.95.78a1.19,1.19,0,0,0,.76.3,1.15,1.15,0,0,0,.61-.19,5.92,5.92,0,0,0,1.92-1.9,1.07,1.07,0,0,0-.1-1.34c-.26-.32-.52-.66-.8-1a.49.49,0,0,1-.07-.61c.33-.75.65-1.52.94-2.29a.49.49,0,0,1,.47-.37l1.19-.11a1.07,1.07,0,0,0,1.07-.86,5.9,5.9,0,0,0,0-2.76,1,1,0,0,0-.91-.83c-.42-.06-.85-.11-1.27-.14s-.43-.06-.59-.46c-.28-.73-.59-1.46-.92-2.18a.52.52,0,0,1,.08-.64c.26-.3.51-.62.76-.93A1.09,1.09,0,0,0,79,97.44a5.94,5.94,0,0,0-1.9-1.92,1.12,1.12,0,0,0-.6-.19,1.17,1.17,0,0,0-.74.29c-.32.26-.65.5-.95.78a.5.5,0,0,1-.35.16.77.77,0,0,1-.31-.08c-.74-.33-1.5-.65-2.26-.93a.48.48,0,0,1-.37-.46c0-.4-.07-.8-.11-1.19a1.09,1.09,0,0,0-.91-1.08,6,6,0,0,0-1.35-.15Zm0,18.11h0a5.4,5.4,0,0,1,0-10.8h0a5.4,5.4,0,0,1,0,10.8Z"/>
        </g>
        <path class="cls-2" d="M85.4,101.21a.91.91,0,0,1-.51-1.65A28.22,28.22,0,0,0,91,93.89.91.91,0,0,1,92.42,95a30.07,30.07,0,0,1-6.51,6A.9.9,0,0,1,85.4,101.21Z"/>
        <path class="cls-2" d="M52.79,101.21a.9.9,0,0,1-.51-.16,30,30,0,0,1-6.51-6,.91.91,0,0,1,1.41-1.13,28.23,28.23,0,0,0,6.12,5.66.91.91,0,0,1-.51,1.65Z"/>
      </g>
    </g>
  </g>
</svg>
