<?xml version="1.0" standalone="no"?><!-- Generator: Gravit.io --><svg xmlns="http://www.w3.org/2000/svg" xmlns:xlink="http://www.w3.org/1999/xlink" style="isolation:isolate" viewBox="11.893 -22 276.214 310" width="276.214" height="310"><g id="grafico-30-perc"><g id="Group"><g transform="matrix(1.079,0,0,1.079,58.447,92.085)"><text transform="matrix(1,0,0,1,17.749,75.33)" style="font-family:&quot;Montserrat&quot;;font-weight:700;font-size:60px;font-style:normal;fill:#ffffff;stroke:none;">30%</text></g><path d=" M 153.458 38.009 L 154.391 12.143 C 117.576 10.961 80.378 24.407 52.303 52.482 C -1.465 106.25 -1.577 193.486 51.967 247.394 L 70.272 229.089 C 26.831 185.284 26.943 114.452 70.609 70.787 C 93.395 48.001 123.578 37.075 153.458 38.009 Z " fill="rgb(255,255,255)"/><path d=" M 153.984 27.248 L 154.534 12 C 188.374 13.086 221.89 26.533 247.697 52.339 C 301.577 106.22 301.577 193.709 247.697 247.589 C 193.816 301.47 106.327 301.47 52.446 247.589 C 52.334 247.477 52.222 247.364 52.11 247.252 L 62.901 236.46 C 63.013 236.573 63.125 236.686 63.237 236.798 C 111.162 284.723 188.981 284.723 236.906 236.798 C 284.831 188.873 284.831 111.055 236.906 63.13 C 213.937 40.162 184.103 28.201 153.984 27.248 Z " fill="rgb(190,200,210)"/></g></g></svg>