<?xml version="1.0" standalone="no"?><!-- Generator: Gravit.io --><svg xmlns="http://www.w3.org/2000/svg" xmlns:xlink="http://www.w3.org/1999/xlink" style="isolation:isolate" viewBox="11.893 -22 276 310" width="276" height="310"><g id="graf-60-p"><g id="Group"><path d=" M 226.505 231.592 L 244.25 250.665 C 219.564 273.815 186.372 288 149.893 288 C 73.729 288 11.893 226.164 11.893 150 C 11.893 73.836 73.729 12 149.893 12 C 150.052 12 150.211 12 150.369 12.001 L 150.369 38.057 C 150.211 38.056 150.052 38.056 149.893 38.056 C 88.109 38.056 37.949 88.216 37.949 150 C 37.949 211.784 88.109 261.944 149.893 261.944 C 179.519 261.944 206.473 250.41 226.505 231.592 Z " fill="rgb(255,255,255)"/><path d=" M 233.861 239.498 L 244.25 250.664 C 271.105 225.479 287.893 189.684 287.893 149.999 C 287.893 73.994 226.315 12.257 150.369 12 L 150.369 27.254 C 217.896 27.511 272.639 82.413 272.639 149.999 C 272.639 185.277 257.724 217.099 233.861 239.498 Z " fill="rgb(190,200,210)"/><g transform="matrix(1.078,0,0,1.078,58.382,92.176)"><text transform="matrix(1,0,0,1,19.879,75.33)" style="font-family:&quot;Montserrat&quot;;font-weight:700;font-size:60px;font-style:normal;fill:#ffffff;stroke:none;">62%</text></g></g></g></svg>