<?xml version="1.0" encoding="utf-8"?>
<!-- Generator: Adobe Illustrator 21.1.0, SVG Export Plug-In . SVG Version: 6.00 Build 0)  -->
<svg version="1.1" id="Layer_1" xmlns="http://www.w3.org/2000/svg" xmlns:xlink="http://www.w3.org/1999/xlink" x="0px" y="0px"
	 viewBox="0 0 276.2 310" style="enable-background:new 0 0 276.2 310;" xml:space="preserve">
<style type="text/css">
	.st0{enable-background:new    ;}
	.st1{fill:#FFFFFF;}
	.st2{fill:#BEC8D2;}
</style>
<g id="grafico-30-perc">
	<g id="Group">
		<g transform="matrix(1.079,0,0,1.079,58.447,92.085)">
			<g class="st0">
				<path class="st1" d="M37.8,69.1c2.1,2,3.1,4.6,3.1,7.8c0,2.7-0.7,5.1-2.1,7.1c-1.4,2.1-3.4,3.7-5.9,4.9c-2.6,1.2-5.6,1.7-9,1.7
					c-3.1,0-6.1-0.5-9.1-1.4c-3-0.9-5.5-2.2-7.5-3.8l4.1-7.7c1.8,1.5,3.6,2.6,5.6,3.4c2,0.8,4,1.1,6,1.1c2.3,0,4.1-0.4,5.3-1.4
					c1.2-0.9,1.9-2.2,1.9-3.9c0-1.7-0.6-3-1.9-3.8c-1.2-0.9-3-1.3-5.4-1.3h-7.1v-6l9.7-9.4H9.5v-8.4h29.4v6.4L27.4,65l2.2,0.4
					C33,65.9,35.8,67.1,37.8,69.1z"/>
				<path class="st1" d="M77.9,53.3c3.2,3.7,4.8,9,4.8,15.8c0,6.9-1.6,12.2-4.8,15.9c-3.2,3.7-7.8,5.6-13.8,5.6
					c-6,0-10.7-1.8-13.9-5.6c-3.2-3.7-4.8-9-4.8-15.9c0-6.9,1.6-12.2,4.8-15.8c3.2-3.7,7.9-5.5,13.9-5.5
					C70,47.7,74.6,49.6,77.9,53.3z M58.4,59c-1.2,2.1-1.7,5.4-1.7,10.1c0,4.7,0.6,8.1,1.7,10.2c1.2,2.1,3.1,3.1,5.7,3.1
					c2.6,0,4.4-1,5.6-3.1c1.2-2.1,1.8-5.5,1.8-10.1c0-4.7-0.6-8-1.8-10.1c-1.2-2.1-3.1-3.1-5.6-3.1C61.4,55.9,59.5,56.9,58.4,59z"/>
				<path class="st1" d="M106.8,51.4c2.1,2.3,3.2,5.4,3.2,9.3c0,3.9-1.1,7-3.2,9.3c-2.1,2.3-5,3.5-8.6,3.5c-3.6,0-6.5-1.1-8.6-3.5
					c-2.1-2.3-3.2-5.4-3.2-9.3c0-3.9,1.1-7,3.2-9.3c2.1-2.3,5-3.5,8.6-3.5C101.8,47.9,104.7,49.1,106.8,51.4z M94.6,55.5
					c-0.9,1.2-1.3,2.9-1.3,5.1c0,2.2,0.4,3.9,1.3,5.1c0.9,1.2,2.1,1.9,3.7,1.9c1.6,0,2.8-0.6,3.7-1.9c0.9-1.2,1.3-2.9,1.3-5.1
					c0-2.2-0.4-3.9-1.3-5.1c-0.9-1.2-2.1-1.9-3.7-1.9C96.7,53.7,95.4,54.3,94.6,55.5z M126.1,48.1h7.4l-29.9,42.1h-7.4L126.1,48.1z
					 M140.2,68.3c2.1,2.3,3.2,5.4,3.2,9.3c0,3.9-1.1,7-3.2,9.3c-2.1,2.3-5,3.5-8.6,3.5c-3.6,0-6.5-1.1-8.6-3.5
					c-2.1-2.3-3.2-5.4-3.2-9.3c0-3.9,1.1-7,3.2-9.3c2.1-2.3,5-3.4,8.6-3.4C135.2,64.9,138.1,66,140.2,68.3z M128,72.5
					c-0.9,1.2-1.3,2.9-1.3,5.1c0,2.2,0.4,3.9,1.3,5.1c0.9,1.2,2.1,1.9,3.7,1.9c1.6,0,2.8-0.6,3.7-1.9c0.9-1.2,1.3-2.9,1.3-5.1
					c0-2.2-0.4-3.9-1.3-5.1c-0.9-1.2-2.1-1.9-3.7-1.9C130.1,70.7,128.9,71.3,128,72.5z"/>
			</g>
		</g>
		<path class="st1" d="M141.6,60l0.9-25.9c-36.8-1.2-74,12.3-102.1,40.3c-53.8,53.8-53.9,141-0.3,194.9l18.3-18.3
			c-43.4-43.8-43.3-114.6,0.3-158.3C81.5,70,111.7,59.1,141.6,60z"/>
		<path class="st2" d="M142.1,49.2l0.6-15.2c33.8,1.1,67.4,14.5,93.2,40.3c53.9,53.9,53.9,141.4,0,195.2
			c-53.9,53.9-141.4,53.9-195.3,0c-0.1-0.1-0.2-0.2-0.3-0.3L51,258.5c0.1,0.1,0.2,0.2,0.3,0.3c47.9,47.9,125.7,47.9,173.7,0
			s47.9-125.7,0-173.7C202,62.2,172.2,50.2,142.1,49.2z"/>
	</g>
</g>
</svg>
