<?xml version="1.0" encoding="utf-8"?>
<!-- Generator: Adobe Illustrator 21.1.0, SVG Export Plug-In . SVG Version: 6.00 Build 0)  -->
<svg version="1.1" id="Layer_1" xmlns="http://www.w3.org/2000/svg" xmlns:xlink="http://www.w3.org/1999/xlink" x="0px" y="0px"
	 viewBox="0 0 276 310" style="enable-background:new 0 0 276 310;" xml:space="preserve">
<style type="text/css">
	.st0{fill:#FFFFFF;}
	.st1{fill:#BEC8D2;}
	.st2{enable-background:new    ;}
</style>
<g id="graf-60-p">
	<g id="Group">
		<path class="st0" d="M214.6,253.6l17.7,19.1C207.7,295.8,174.5,310,138,310C61.8,310,0,248.2,0,172S61.8,34,138,34
			c0.2,0,0.3,0,0.5,0v26.1c-0.2,0-0.3,0-0.5,0C76.2,60.1,26.1,110.2,26.1,172S76.2,283.9,138,283.9
			C167.6,283.9,194.6,272.4,214.6,253.6z"/>
		<path class="st1" d="M222,261.5l10.4,11.2c26.9-25.2,43.6-61,43.6-100.7c0-76-61.6-137.7-137.5-138v15.3
			C206,49.5,260.7,104.4,260.7,172C260.7,207.3,245.8,239.1,222,261.5z"/>
		<g transform="matrix(1.078,0,0,1.078,58.382,92.176)">
			<g class="st2">
				<path class="st0" d="M34.8,53.9c-1.5-0.5-3.1-0.7-4.6-0.7c-3.2,0-5.7,1-7.3,2.9c-1.6,1.9-2.4,4.6-2.3,8.1c2.1-3,5.4-4.5,9.8-4.5
					c2.7,0,5,0.6,7.1,1.7c2,1.1,3.6,2.7,4.7,4.8c1.1,2.1,1.7,4.4,1.7,7.2c0,2.9-0.6,5.5-1.9,7.7c-1.3,2.2-3.1,3.9-5.4,5
					c-2.3,1.2-5.1,1.8-8.1,1.8c-3.7,0-6.9-0.8-9.5-2.5c-2.7-1.7-4.7-4.1-6.2-7.2c-1.4-3.1-2.2-6.8-2.2-11.1c0-4.4,0.8-8.3,2.4-11.7
					c1.6-3.4,3.8-5.9,6.7-7.8c2.9-1.8,6.2-2.7,10.1-2.7c2.3,0,4.7,0.3,7.1,1c2.4,0.6,4.5,1.5,6.3,2.5l-4.1,7.6
					C37.6,55,36.3,54.3,34.8,53.9z M23.3,69.2c-1.1,1.1-1.7,2.5-1.7,4.2c0,1.7,0.5,3.1,1.6,4.1c1,1.1,2.6,1.6,4.6,1.6
					c1.9,0,3.4-0.5,4.4-1.5c1.1-1,1.6-2.5,1.6-4.4c0-1.8-0.5-3.2-1.6-4.2c-1-1-2.5-1.5-4.3-1.5C26,67.6,24.4,68.1,23.3,69.2z"/>
				<path class="st0" d="M81,78.6v8.8h-32l-0.1-7.3l15.3-15.7c1.2-1.2,2.2-2.5,2.9-3.7c0.8-1.2,1.1-2.3,1.1-3.2
					c0-1.2-0.4-2.1-1.3-2.7c-0.8-0.6-2-0.9-3.5-0.9c-1.7,0-3.6,0.5-5.6,1.4c-2.1,0.9-4.1,2.3-6,3.9l-4.2-8.1
					c5.8-4.2,11.6-6.3,17.5-6.3c2.8,0,5.3,0.5,7.5,1.4c2.2,0.9,4,2.2,5.2,3.9c1.3,1.7,1.9,3.6,1.9,5.8s-0.7,4.4-2.1,6.7
					c-1.4,2.3-3.4,4.8-6,7.4L63,78.6H81z"/>
				<path class="st0" d="M104.7,48.6c2.1,2.3,3.2,5.4,3.2,9.3c0,3.9-1.1,7-3.2,9.3c-2.1,2.3-5,3.4-8.6,3.4c-3.6,0-6.5-1.1-8.6-3.4
					c-2.1-2.3-3.2-5.4-3.2-9.3c0-3.9,1.1-7,3.2-9.3c2.1-2.3,5-3.5,8.6-3.5C99.7,45.1,102.5,46.3,104.7,48.6z M92.4,52.8
					c-0.9,1.2-1.3,2.9-1.3,5.1c0,2.2,0.4,3.9,1.3,5.1c0.9,1.2,2.1,1.9,3.7,1.9c1.6,0,2.8-0.6,3.7-1.9c0.9-1.2,1.3-2.9,1.3-5.1
					c0-2.2-0.4-3.9-1.3-5.1c-0.9-1.2-2.1-1.9-3.7-1.9C94.5,50.9,93.3,51.5,92.4,52.8z M123.9,45.3h7.4l-29.9,42.1H94L123.9,45.3z
					 M138.1,65.6c2.1,2.3,3.2,5.4,3.2,9.3c0,3.9-1.1,7-3.2,9.3c-2.1,2.3-5,3.4-8.6,3.4c-3.6,0-6.5-1.1-8.6-3.4
					c-2.1-2.3-3.2-5.4-3.2-9.3c0-3.9,1.1-7,3.2-9.3c2.1-2.3,5-3.5,8.6-3.5C133.1,62.1,136,63.3,138.1,65.6z M125.8,69.7
					c-0.9,1.2-1.3,2.9-1.3,5.1c0,2.2,0.4,3.9,1.3,5.1c0.9,1.2,2.1,1.9,3.7,1.9c1.6,0,2.8-0.6,3.7-1.9c0.9-1.2,1.3-2.9,1.3-5.1
					c0-2.2-0.4-3.9-1.3-5.1c-0.9-1.2-2.1-1.9-3.7-1.9C127.9,67.9,126.7,68.5,125.8,69.7z"/>
			</g>
		</g>
	</g>
</g>
</svg>
