<svg xmlns="http://www.w3.org/2000/svg" viewBox="0 0 138.2 138.2">
  <defs>
    <style>
      .cls-1 {
        fill: #fff;
      }

      .cls-2, .cls-6, .cls-7 {
        fill: none;
      }

      .cls-2, .cls-3 {
        stroke: #2c83e6;
      }

      .cls-2, .cls-3, .cls-6, .cls-7 {
        stroke-linecap: round;
        stroke-linejoin: round;
        stroke-width: 2px;
      }

      .cls-3, .cls-5 {
        fill: #d8e0ea;
      }

      .cls-4 {
        fill: #2c83e6;
      }

      .cls-6 {
        stroke: #bec8d2;
      }

      .cls-7 {
        stroke: #d8e0ea;
      }
    </style>
  </defs>
  <title>integrations</title>
  <g id="Layer_2" data-name="Layer 2">
    <g id="Layer_1-2" data-name="Layer 1">
      <g id="Layer_2-2" data-name="Layer 2">
        <g id="Isolation_Mode" data-name="Isolation Mode">
          <circle class="cls-1" cx="69.1" cy="69.1" r="69.1"/>
        </g>
      </g>
      <g>
        <path class="cls-2" d="M39.55,65.33a15.18,15.18,0,0,0,0-21.44L23.34,27.68a2,2,0,0,0-.31-.25c-.91,1-1.78,2.05-2.63,3.12l0,0L36.64,46.79a11.05,11.05,0,0,1,0,15.63L22.09,77a14.5,14.5,0,0,0,0,20.48l2.08,2.08a12.31,12.31,0,0,0,17.4,0,2.05,2.05,0,0,0-2.9-2.9,8.2,8.2,0,0,1-11.59,0L25,94.55a10.38,10.38,0,0,1,0-14.67Z"/>
        <path class="cls-3" d="M97.47,74.29a15.18,15.18,0,0,0,0,21.44l16.21,16.21a2,2,0,0,0,.31.25c.91-1,1.78-2.05,2.63-3.12l0,0L100.37,92.83a11.05,11.05,0,0,1,0-15.63l14.55-14.55a14.5,14.5,0,0,0,0-20.48l-2.08-2.08a12.31,12.31,0,0,0-17.4,0,2.05,2.05,0,0,0,2.9,2.9,8.2,8.2,0,0,1,11.59,0L112,45.07a10.38,10.38,0,0,1,0,14.67Z"/>
        <path class="cls-4" d="M69.1,7.7A61.4,61.4,0,1,1,7.7,69.1,61.47,61.47,0,0,1,69.1,7.7m0-2a63.4,63.4,0,1,0,63.4,63.4A63.4,63.4,0,0,0,69.1,5.7Z"/>
        <path class="cls-4" d="M69.1,7.7A61.4,61.4,0,1,1,7.7,69.1,61.47,61.47,0,0,1,69.1,7.7m0-2a63.4,63.4,0,1,0,63.4,63.4A63.4,63.4,0,0,0,69.1,5.7Z"/>
        <g>
          <g>
            <path class="cls-5" d="M52.87,70.28l9.88-9.88A2.33,2.33,0,0,1,66,63.69l-9.88,9.88Z"/>
            <path class="cls-4" d="M64.4,60.72A1.33,1.33,0,0,1,65.33,63l-9.17,9.17-1.88-1.88,9.17-9.17a1.32,1.32,0,0,1,.94-.39m0-2a3.32,3.32,0,0,0-2.35,1L51.46,70.28l4.7,4.7L66.75,64.4a3.33,3.33,0,0,0-2.35-5.68Z"/>
          </g>
          <g>
            <path class="cls-5" d="M64.63,82l9.88-9.88a2.33,2.33,0,1,1,3.29,3.29l-9.88,9.88Z"/>
            <path class="cls-4" d="M76.16,72.48a1.33,1.33,0,0,1,.94,2.27l-9.17,9.17L66,82l9.17-9.17a1.32,1.32,0,0,1,.94-.39m0-2a3.32,3.32,0,0,0-2.35,1L63.22,82l4.7,4.7L78.51,76.16a3.33,3.33,0,0,0,0-4.7h0a3.32,3.32,0,0,0-2.35-1Z"/>
          </g>
          <g>
            <path class="cls-5" d="M89.1,70.65a1.35,1.35,0,0,1-1-.4L67.94,50.06a1.36,1.36,0,0,1,0-1.92l9.37-9.37a13.34,13.34,0,0,1,18.86,0L99.42,42a13.34,13.34,0,0,1,0,18.86l-9.37,9.37A1.35,1.35,0,0,1,89.1,70.65Z"/>
            <path class="cls-4" d="M86.74,35.87a12.26,12.26,0,0,1,8.73,3.61l3.25,3.25a12.34,12.34,0,0,1,0,17.45l-9.37,9.37a.36.36,0,0,1-.5,0L68.65,49.36a.36.36,0,0,1,0-.5L78,39.48a12.26,12.26,0,0,1,8.73-3.61m0-2a14.29,14.29,0,0,0-10.14,4.2l-9.37,9.37a2.36,2.36,0,0,0,0,3.33L87.43,71a2.36,2.36,0,0,0,3.33,0l9.37-9.37a14.34,14.34,0,0,0,0-20.28l-3.25-3.25a14.29,14.29,0,0,0-10.14-4.2Z"/>
          </g>
          <path class="cls-6" d="M72.46,48.94l8.82-8.82a7.31,7.31,0,0,1,10.33-.25h0"/>
          <g>
            <path class="cls-1" d="M51.46,103.33A13.25,13.25,0,0,1,42,99.42l-3.25-3.25a13.34,13.34,0,0,1,0-18.86l9.37-9.37a1.36,1.36,0,0,1,1.92,0L70.25,88.14a1.36,1.36,0,0,1,0,1.92l-9.37,9.37A13.25,13.25,0,0,1,51.46,103.33Z"/>
            <path class="cls-4" d="M49.1,68.55a.35.35,0,0,1,.25.1L69.55,88.84a.36.36,0,0,1,0,.5l-9.37,9.37a12.34,12.34,0,0,1-17.45,0l-3.25-3.25a12.35,12.35,0,0,1,0-17.45l9.37-9.37a.35.35,0,0,1,.25-.1m0-2a2.35,2.35,0,0,0-1.67.69L38.07,76.6a14.34,14.34,0,0,0,0,20.28l3.25,3.25a14.34,14.34,0,0,0,20.28,0L71,90.76a2.36,2.36,0,0,0,0-3.33L50.77,67.24a2.35,2.35,0,0,0-1.67-.69Z"/>
          </g>
          <path class="cls-7" d="M65.74,89.26l-8.82,8.82a7.31,7.31,0,0,1-10.33.25h0"/>
        </g>
      </g>
    </g>
  </g>
</svg>
