<svg xmlns="http://www.w3.org/2000/svg" viewBox="0 0 287.28 307.28" id="interactions-with-visitors">
  <defs>
    <style>
      .interactions-with-visitors-1 {
        fill: #fff;
      }

      .interactions-with-visitors-2 {
        fill: #e8f0fa;
      }

      .interactions-with-visitors-2, .interactions-with-visitors-3, .interactions-with-visitors-4, .interactions-with-visitors-5, .interactions-with-visitors-7, .interactions-with-visitors-8 {
        stroke: #2c83e6;
        stroke-linecap: round;
        stroke-linejoin: round;
        stroke-width: 3px;
      }

      .interactions-with-visitors-3 {
        fill: #a0aab4;
      }

      .interactions-with-visitors-4 {
        fill: #f3f3f4;
      }

      .interactions-with-visitors-5 {
        fill: none;
      }

      .interactions-with-visitors-6 {
        fill: #2c83e6;
      }

      .interactions-with-visitors-7 {
        fill: #d8e0ea;
      }

      .interactions-with-visitors-8 {
        fill: #bec8d2;
      }
    </style>
  </defs>
  <title>interactions with visitors</title>
  <g id="Layer_2" data-name="Layer 2">
    <g id="Layer_1-2" data-name="Layer 1">
      <g>
        <path class="interactions-with-visitors-1" d="M287.28,60.53V22.59A22.61,22.61,0,0,0,264.69,0H188.8a22.62,22.62,0,0,0-22.57,21.77A144.4,144.4,0,0,0,143.64,20C64.44,20,0,84.44,0,163.64A143.81,143.81,0,0,0,74,289.26l.21.12c2.7,1.5,5.49,2.92,8.22,4.21l.29.14c1.38.65,2.77,1.27,4.11,1.85h0l.12.05c2.79,1.2,5.67,2.33,8.54,3.35l.57.2c1.34.47,2.69.92,4,1.34l.31.1c1.5.47,3,.92,4.39,1.31l.31.08c1.34.37,2.69.72,4,1.05l.9.22q2,.47,4,.89l.43.09c1.44.3,2.93.58,4.41.84l.86.14q1.79.3,3.58.56l1.17.16c1.33.18,2.67.34,4,.48l.46.05c1.4.14,2.85.27,4.45.38l1.19.08q1.69.11,3.39.18h.2l1.1,0c1.56,0,3,.07,4.26.08h.47c1.3,0,2.7,0,4.27-.08l1.1,0h.2c1.13,0,2.26-.1,3.4-.18l1.2-.08c1.59-.11,3-.24,4.4-.38l.47-.05c1.34-.14,2.67-.3,4-.48l1.16-.16c1.2-.17,2.39-.36,3.6-.56l.82-.14q2.27-.4,4.47-.85l.39-.08c1.33-.28,2.64-.58,4-.9l.87-.21c1.35-.33,2.7-.69,4-1l.28-.08c1.46-.41,3-.86,4.46-1.33l.28-.09c1.36-.43,2.7-.88,4.08-1.37l.52-.18c2.89-1,5.78-2.16,8.57-3.36l.13-.06c1.34-.58,2.72-1.2,4.06-1.83l.27-.13c2.75-1.3,5.5-2.7,8.16-4.17l.21-.12c1.37-.76,2.72-1.54,4-2.31a143.61,143.61,0,0,0,45.35-203.9h2.13A22.61,22.61,0,0,0,287.28,60.53Z"/>
        <g>
          <g>
            <circle class="interactions-with-visitors-2" cx="143.64" cy="163.64" r="128.64"/>
            <path class="interactions-with-visitors-3" d="M143.64,59.07A67.64,67.64,0,0,0,76,126.71v112.6a53.46,53.46,0,0,0,45.24-24.95c-.6-.29-1.2-.6-1.78-.91l-.78-.43-1.16-.67-.76-.45c-.57-.35-1.13-.71-1.69-1.08l-.61-.42-1.17-.83-.72-.54-1.13-.89-.57-.46q-.78-.64-1.52-1.32l-.61-.56-1-1-.59-.58c-.48-.48-1-1-1.41-1.48l-.39-.44q-.53-.6-1.05-1.21l-.52-.63q-.49-.6-1-1.22l-.39-.51q-.62-.84-1.21-1.7l-.39-.59q-.43-.65-.84-1.31l-.38-.62c-.37-.61-.72-1.22-1.06-1.85l-.17-.33q-.44-.82-.84-1.65l-.31-.64q-.36-.77-.7-1.56l-.22-.49q-.42-1-.8-2l-.2-.56q-.29-.8-.55-1.62l-.2-.63c-.22-.71-.42-1.43-.61-2.15l0-.15c-.17-.68-.33-1.37-.48-2.07,0-.22-.09-.44-.13-.65q-.18-.89-.32-1.79c0-.17-.06-.34-.08-.51q-.17-1.13-.29-2.27c0-.18,0-.36,0-.54q-.09-.92-.14-1.85c0-.22,0-.44,0-.66,0-.78-.06-1.57-.06-2.36V132.41h31.25a16.66,16.66,0,0,0,11.78-4.88l8.3-8.3,8.3,8.3a16.66,16.66,0,0,0,11.78,4.88H195v35.75c0,.79,0,1.58-.06,2.36,0,.22,0,.44,0,.66q-.05.93-.14,1.85c0,.18,0,.36,0,.54q-.12,1.14-.29,2.27c0,.17-.06.34-.08.51q-.14.9-.32,1.79c0,.22-.09.44-.13.65-.15.69-.3,1.38-.48,2.07l0,.15c-.19.72-.39,1.44-.61,2.15l-.2.63q-.26.82-.55,1.62l-.2.56q-.38,1-.8,2l-.22.49q-.34.79-.7,1.56l-.31.64q-.41.83-.84,1.65l-.17.33c-.34.62-.7,1.24-1.06,1.85l-.38.62q-.41.66-.84,1.31l-.39.59q-.59.86-1.21,1.7l-.39.51q-.47.62-1,1.22l-.52.63q-.52.61-1.05,1.21l-.39.44c-.46.5-.93,1-1.41,1.48l-.59.58-1,1-.61.56q-.75.67-1.52,1.32l-.57.46-1.13.89-.72.54-1.17.83-.61.42c-.55.37-1.12.73-1.69,1.08l-.76.45-1.16.67-.78.43c-.59.31-1.18.62-1.78.91a53.46,53.46,0,0,0,45.24,24.95V126.71A67.64,67.64,0,0,0,143.64,59.07Z"/>
            <path class="interactions-with-visitors-4" d="M166.55,132.41h-2.82a16.66,16.66,0,0,1-11.78-4.88l-8.3-8.3-8.3,8.3a16.66,16.66,0,0,1-11.78,4.88H92.31v35.75a51.33,51.33,0,0,0,51.33,51.33h0A51.33,51.33,0,0,0,195,168.16V132.41Z"/>
            <path class="interactions-with-visitors-5" d="M92.31,132.41V127.2a51.16,51.16,0,0,1,14.51-35.76"/>
            <g>
              <circle class="interactions-with-visitors-6" cx="117.27" cy="163.35" r="4.32"/>
              <circle class="interactions-with-visitors-6" cx="170.01" cy="163.35" r="4.32"/>
            </g>
            <path class="interactions-with-visitors-4" d="M195,138.29v29.87a51.51,51.51,0,0,1-1.18,10.95H195a16.31,16.31,0,0,0,16.31-16.31v-8.2A16.31,16.31,0,0,0,195,138.29Z"/>
            <path class="interactions-with-visitors-4" d="M92.31,168.16V138.29A16.31,16.31,0,0,0,76,154.6v8.2a16.31,16.31,0,0,0,16.31,16.31h1.18A51.51,51.51,0,0,1,92.31,168.16Z"/>
            <path class="interactions-with-visitors-7" d="M143.64,219.49h0a51.12,51.12,0,0,1-21.36-4.66v36.51a21.36,21.36,0,0,0,42.72,0V214.84A51.12,51.12,0,0,1,143.64,219.49Z"/>
            <path class="interactions-with-visitors-8" d="M187.32,246.07H165v5.28a21.36,21.36,0,0,1-42.72,0v-5.28H100a22.2,22.2,0,0,0-22.2,22.2v5.88a128.72,128.72,0,0,0,131.76,0v-5.88A22.2,22.2,0,0,0,187.32,246.07Z"/>
            <path class="interactions-with-visitors-5" d="M156.52,187.08A12.88,12.88,0,0,1,143.64,200"/>
          </g>
          <g class="interactions-real-time">
            <g>
              <path class="interactions-with-visitors-1" d="M185.27,81.55A2.28,2.28,0,0,1,183,79.26V22.59a5.84,5.84,0,0,1,5.84-5.84h75.89a5.84,5.84,0,0,1,5.84,5.84V60.53a5.84,5.84,0,0,1-5.84,5.84H202.08a1.75,1.75,0,0,0-1.24.51l-14,14A2.2,2.2,0,0,1,185.27,81.55Z"/>
              <path class="interactions-with-visitors-6" d="M264.69,18.5a4.09,4.09,0,0,1,4.09,4.09V60.53a4.09,4.09,0,0,1-4.09,4.09H202.08a3.5,3.5,0,0,0-2.48,1l-14,14a.45.45,0,0,1-.35.16.54.54,0,0,1-.56-.54V22.59a4.09,4.09,0,0,1,4.09-4.09h75.89m0-3.5H188.8a7.59,7.59,0,0,0-7.59,7.59V79.26a4,4,0,0,0,4.06,4,4,4,0,0,0,2.82-1.19l14-14h62.61a7.59,7.59,0,0,0,7.59-7.59V22.59A7.59,7.59,0,0,0,264.69,15Z"/>
            </g>
            <path class="interactions-with-visitors-6" d="M251.26,36h-49a1.75,1.75,0,1,1,0-3.5h49a1.75,1.75,0,1,1,0,3.5Z"/>
            <path class="interactions-with-visitors-6" d="M251.26,43h-49a1.75,1.75,0,1,1,0-3.5h49a1.75,1.75,0,1,1,0,3.5Z"/>
            <path class="interactions-with-visitors-6" d="M251.26,50h-49a1.75,1.75,0,1,1,0-3.5h49a1.75,1.75,0,1,1,0,3.5Z"/>
          </g>
        </g>
      </g>
    </g>
  </g>
</svg>
