<!-- Generator: Adobe Illustrator 21.1.0, SVG Export Plug-In . SVG Version: 6.00 Build 0)  -->
<svg version="1.1" id="Layer_1" xmlns="http://www.w3.org/2000/svg" xmlns:xlink="http://www.w3.org/1999/xlink" x="0px" y="0px"
	 viewBox="-20 -20 560.8 940.6" style="enable-background:new 0 0 524.8 902.6;" xml:space="preserve">
<style type="text/css">
	.smk-kio0{fill:#E8F0FA;stroke:#2C83E6;stroke-width:5;stroke-linejoin:round;stroke-miterlimit:10;}
	.smk-kio1{fill:#D8E0EA;stroke:#2C83E6;stroke-width:3;stroke-miterlimit:10;}
	.smk-kio2{fill:#BEC8D2;stroke:#2C83E6;stroke-width:3;stroke-miterlimit:10;}
	.smk-kio3{fill:#F3F3F4;stroke:#2C83E6;stroke-width:3;stroke-miterlimit:10;}
	.smk-kio4{fill:#E8F0FA;stroke:#2C83E6;stroke-width:3;stroke-miterlimit:10;}
	.smk-kio5{fill:#D8E0EA;}
	.smk-kio6{fill:#333333;}
	.smk-kio7{fill:none;stroke:#2C83E6;stroke-width:12;stroke-miterlimit:10;}
	.smk-kio8{fill:none;stroke:#A0AAB4;stroke-width:5;stroke-linecap:round;stroke-linejoin:round;stroke-miterlimit:10;}
	.smk-kio9{fill:#BEC8D2;}
	.smk-kio10{fill:#2C83E6;}
</style>
<g id="kio">
	<path class="smk-kio0" d="M520,557.9l-40.2-86.4c-5.8-12.4-17.7-20.6-31.2-21.6l-0.7-5c-0.8-6-3.1-11.3-6.6-15.8l0,0
		c18.6-14.2,29.9-36.7,28.1-61.3l-2.7-38v-0.3c-0.3-4,3.2-7.4,7.7-7.4h3.5c12.4,0,22.6-8.2,24.7-18.8v-0.1c0.1-0.6,0.2-1.1,0.3-1.7
		l0,0c0.1-0.6,0.1-1.1,0.1-1.7c0-0.1,0-0.2,0-0.4c0-0.6,0-1.1,0-1.7l-5.6-77.4c0-0.6-0.1-1.1-0.2-1.7c0-0.3-0.1-0.5-0.2-0.8
		s-0.1-0.5-0.2-0.8c-0.1-0.4-0.2-0.7-0.4-1.1c-0.1-0.2-0.1-0.3-0.2-0.5c-0.2-0.4-0.4-0.8-0.6-1.3c0-0.1-0.1-0.2-0.1-0.2
		c-0.2-0.5-0.5-0.9-0.8-1.3v-0.1c-3.4-5.3-9.6-8.8-16.7-8.8h-7.2c-6.6,0-12.3-4.1-13.9-9.8l-4.2-58.1c-0.6-7.8-1.8-15.5-3.6-22.9
		c11.4-4.9,21.2-13.7,27.2-25.9l32.5-65.5C515,9,502.1-4.4,489.3,1.4l-85.4,38.9C378,18.1,344,4.8,306.8,4.8h-89.5
		c-37.1,0-71.2,13.4-97.1,35.5L34.8,1.4C22.1-4.4,9.1,9,15.3,21.5L47.8,87c6,12.2,15.9,21,27.2,25.9c-1.8,7.4-3,15-3.6,22.9
		l-4.2,58.1c-1.6,5.7-7.2,9.8-13.9,9.8h-7.2c-5.3,0-10,1.9-13.5,5l0,0l0,0c-1.2,1.1-2.3,2.4-3.2,3.7v0.1c-0.3,0.4-0.5,0.9-0.8,1.3
		c0,0.1-0.1,0.2-0.1,0.2c-0.2,0.4-0.4,0.8-0.6,1.2c-0.1,0.2-0.1,0.3-0.2,0.5c-0.1,0.4-0.3,0.7-0.4,1.1c-0.1,0.3-0.1,0.5-0.2,0.8
		c-0.1,0.3-0.1,0.5-0.2,0.8c-0.1,0.6-0.2,1.1-0.2,1.7l-5.6,77.4c0,0.6-0.1,1.1,0,1.7c0,0.1,0,0.2,0,0.4c0,0.6,0,1.1,0.1,1.7l0,0
		c0.1,0.6,0.2,1.2,0.3,1.7v0.1c2.1,10.6,12.3,18.8,24.7,18.8h3.5c4.4,0,7.9,3.4,7.7,7.4l-0.1,1.7l-2.6,36.5
		c-1.8,24.6,9.5,47.1,28.1,61.3l0,0c-3.4,4.5-5.8,9.8-6.6,15.8l-0.7,5c-13.5,1-25.5,9.2-31.2,21.6L4.7,557.9
		c-4.6,10-5.9,21.1-3.6,31.9L5.5,610c5,23.1,25.4,39.6,49.1,39.6h2.3l0,0c0.6,3.9,1.3,7.8,2.2,11.6l6.3,28l2.1,9.5
		c7.2,31.8,28.6,57.6,57,71l0,0l19.2,99.8c3.7,19.2,20.5,33.1,40.1,33.1h11c10.6,0,19.3-8.6,19.3-19.3v-67.8
		c0-11.2,8.4-20.6,19.5-21.8c0,0,18.5-2.4,28.8-2.4s28.8,2.4,28.8,2.4c11.1,1.2,19.5,10.6,19.5,21.8v67.8c0,10.6,8.6,19.3,19.3,19.3
		h11c19.6,0,36.4-13.9,40.1-33.1l19.2-99.8l0,0l0,0c28.4-13.3,49.8-39.2,57-71l2.1-9.5l6.3-28c0.9-3.8,1.6-7.7,2.2-11.6h2.3
		c23.6,0,44.1-16.5,49.1-39.6l4.4-20.2C525.9,579,524.7,567.8,520,557.9z"/>
	<g>
		<path class="smk-kio1" d="M56.3,602.6c0-0.2,0-0.3,0.1-0.5l19.7-152.2c-13.5,1-25.5,9.2-31.2,21.6L4.7,557.9c-4.6,10-5.9,21.1-3.6,31.9
			L5.5,610c5,23.1,25.4,39.6,49.1,39.6h2.3C54.5,634,54.3,618.2,56.3,602.6z"/>
		<path class="smk-kio1" d="M468.4,602.6c0-0.2,0-0.3-0.1-0.5l-19.6-152.2c13.5,1,25.5,9.2,31.2,21.6l40.2,86.4c4.6,10,5.9,21.1,3.6,31.9
			l-4.4,20.2c-5,23.1-25.4,39.6-49.1,39.6h-2.3C470.2,634,470.4,618.2,468.4,602.6z"/>
		<path class="smk-kio2" d="M396.4,771.3L396.4,771.3c-1.3,0.5-2.6,1.1-3.9,1.5h-0.1c-1.2,0.5-2.5,0.9-3.7,1.3c-0.1,0-0.2,0.1-0.3,0.1
			c-1.2,0.4-2.4,0.8-3.6,1.1c-0.2,0-0.3,0.1-0.5,0.2c-1.1,0.3-2.3,0.6-3.4,0.9c-0.2,0.1-0.5,0.1-0.7,0.2c-1.1,0.3-2.2,0.5-3.2,0.7
			c-0.3,0.1-0.6,0.1-0.9,0.2c-1.1,0.2-2.1,0.4-3.2,0.6c-0.3,0.1-0.7,0.1-1,0.2c-1.4,0.2-2.8,0.4-4.2,0.6c0,0-67.7,5.9-105.2,5.9
			s-105.2-5.9-105.2-5.9c-1.4-0.2-2.8-0.3-4.2-0.6c-0.3-0.1-0.7-0.1-1-0.2c-1.1-0.2-2.1-0.4-3.2-0.6c-0.3-0.1-0.6-0.1-0.9-0.2
			c-1.1-0.2-2.2-0.5-3.2-0.7c-0.2-0.1-0.5-0.1-0.7-0.2c-1.1-0.3-2.3-0.6-3.4-0.9c-0.2,0-0.3-0.1-0.5-0.2c-1.2-0.3-2.4-0.7-3.6-1.1
			c-0.1,0-0.2-0.1-0.3-0.1c-1.3-0.4-2.5-0.9-3.8-1.3h-0.1c-1.3-0.5-2.6-1-3.8-1.5l0,0c-1.3-0.5-2.6-1.1-3.8-1.7l0,0l19.2,99.8
			c3.7,19.2,20.5,33.1,40.1,33.1h11c10.6,0,19.3-8.6,19.3-19.3v-67.8c0-11.2,8.4-20.6,19.5-21.8c0,0,18.5-2.4,28.8-2.4
			s28.8,2.4,28.8,2.4c11.1,1.2,19.5,10.6,19.5,21.8v67.8c0,10.6,8.6,19.3,19.3,19.3h11c19.6,0,36.4-13.9,40.1-33.1l19.2-99.8l0,0
			C399,770.2,397.7,770.7,396.4,771.3z"/>
		<path class="smk-kio3" d="M65.4,689.2l2.1,9.5c9.7,43.1,45.7,75.3,89.7,80.2c0,0,67.7,5.9,105.2,5.9s105.2-5.9,105.2-5.9
			c43.9-4.8,80-37.1,89.7-80.2l2.1-9.5c-65.5,4.9-131.2,7.3-197,7.3C196.6,696.5,130.9,694,65.4,689.2z"/>
		<path class="smk-kio4" d="M468.5,602.6c-68.5,5.5-137.3,8.3-206.1,8.3s-137.6-2.8-206.1-8.3c-2.5,19.5-1.5,39.3,2.8,58.5l6.3,28
			c65.5,4.9,131.2,7.3,197,7.3s131.5-2.4,197-7.3l6.3-28C470,641.9,470.9,622.1,468.5,602.6z"/>
		<path class="smk-kio3" d="M448,444.9c-0.8-6-3.1-11.3-6.6-15.8c-11.9,9.1-26.9,14.9-43.3,15.5c0,0-84.4,5.3-135.7,5.3
			s-135.7-5.3-135.7-5.3c-16.4-0.6-31.4-6.4-43.3-15.5c-3.4,4.5-5.8,9.8-6.6,15.8L56.4,602.2c0,0.2,0,0.3-0.1,0.5
			c68.5,5.5,137.3,8.3,206.1,8.3s137.6-2.8,206.1-8.3c0-0.2,0-0.3-0.1-0.5L448,444.9z"/>
		<path class="smk-kio4" d="M57.9,329.5l-0.1,1.7l9.9-137.3c-1.6,5.7-7.2,9.8-13.9,9.8h-7.2c-10.2,0-18.7,7.2-19.4,16.5l-5.6,77.4
			c-1,13.2,10.6,24.4,25.1,24.4h3.5C54.7,322,58.2,325.5,57.9,329.5z"/>
		<path class="smk-kio4" d="M466.8,329.5l0.1,1.7L457,193.9c1.6,5.7,7.2,9.8,13.9,9.8h7.2c10.2,0,18.7,7.2,19.4,16.5l5.6,77.4
			c1,13.2-10.6,24.4-25.1,24.4h-3.5C470.1,322,466.5,325.5,466.8,329.5z"/>
		<g>
			<path class="smk-kio4" d="M35.2,1.5L132.9,46c21.2,9.7,24.9,38.3,6.7,53l-7.9,6.4c-27.3,22-67.9,13.1-83.4-18.3L15.8,21.6
				C9.5,9.1,22.4-4.3,35.2,1.5z"/>
			<path class="smk-kio4" d="M489.6,1.5L391.9,46c-21.2,9.7-24.9,38.3-6.7,53l7.9,6.4c27.3,22,67.9,13.1,83.4-18.3L509,21.6
				C515.3,9.1,502.3-4.3,489.6,1.5z"/>
		</g>
		<path class="smk-kio3" d="M469.6,367.8l-16.7-231.9c-5.3-73.8-69-131-145.8-131h-89.5c-76.8,0-140.5,57.2-145.8,131L55.1,367.8
			c-2.9,40.4,29.4,75.2,71.5,76.8c0,0,84.4,5.3,135.7,5.3s135.7-5.3,135.7-5.3C440.1,442.9,472.5,408.2,469.6,367.8z"/>
		<path class="smk-kio5" d="M320.9,370.7H208.8c-43.1,0-75.1-8.5-95.2-25.2c-16.9-14.1-25.5-33.9-25.5-58.8v-38c0-15.7,1.3-27.6,4.2-37.6
			c3.5-12.2,9.4-21.9,18.1-29.5c18.2-16.1,49.5-23.6,98.4-23.6h112.1c48.9,0,80.2,7.5,98.4,23.6c19.7,17.4,22.3,43.7,22.3,67.2v38
			c0,24.9-8.6,44.7-25.5,58.8C396,362.3,364,370.7,320.9,370.7z"/>
		<path class="smk-kio6" d="M208.8,170.9c-45.5,0-74.1,6.5-89.8,20.4c-12.7,11.3-17.9,27.9-17.9,57.4v38c0,20.9,7,37.3,20.9,48.8
			c17.7,14.7,46.9,22.2,86.9,22.2H321c39.9,0,69.2-7.5,86.9-22.2c13.8-11.5,20.9-27.9,20.9-48.8v-38c0-29.5-5.2-46.2-17.9-57.4
			c-15.7-13.9-44.2-20.4-89.8-20.4H208.8z"/>
		<path class="smk-kio4" d="M306.4,126c-8.4-1.4-32-1.4-44-1.4s-35.6,0.1-44,1.4c-8.8,1.4-14.5,6.5-14.5,14.5v0.8c0,3.4,2.8,6.2,6.2,6.2
			c0,0,38.1-1.3,52.3-1.4c14.2,0.1,52.3,1.4,52.3,1.4c3.4,0,6.2-2.8,6.2-6.2v-0.8C320.8,132.4,315.1,127.4,306.4,126z"/>
		<circle class="smk-kio7 right-eye" cx="183.2" cy="257.9" r="33.5"/>
		<circle class="smk-kio7 right-eye" cx="338.7" cy="257.9" r="33.5"/>
		<path class="smk-kio8" d="M227.9,326c8.9,7,20.1,11.3,32.3,11.3s23.4-4.2,32.3-11.3"/>
		<path class="smk-kio2" d="M33.1,208.8c-3.3,2.9-5.5,7-5.8,11.5l-5.6,77.4c-0.4,5.1,1.1,9.9,3.9,13.9L33.1,208.8z"/>
		<path class="smk-kio2" d="M491.6,208.8c3.3,2.9,5.5,7,5.8,11.5l5.6,77.4c0.4,5.1-1.1,9.9-3.9,13.9L491.6,208.8z"/>
		<circle class="smk-kio9" cx="262.4" cy="529" r="41.9"/>
		<circle class="smk-kio6" cx="262.4" cy="529" r="33.4"/>
		<g>
			<polygon class="smk-kio10" points="279.8,544.5 268.4,544.5 256.6,513.5 268.1,513.5 			"/>
			<polygon class="smk-kio10" points="255.3,516.9 244.9,544.5 256.4,544.5 261.1,532.1 			"/>
		</g>
		<circle class=" lights light_1" cx="214.6" cy="650.3" r="8.4"/>
		<circle class=" lights light_2" cx="238.5" cy="651.4" r="8.4"/>
		<circle class=" lights light_3" cx="262.4" cy="651.8" r="8.4"/>
		<circle class=" lights light_4" cx="286.3" cy="651.4" r="8.4"/>
		<circle class=" lights light_5" cx="310.2" cy="650.3" r="8.4"/>
		<g>
			<path class="smk-kio5" d="M213.2,742.7v-3.4c1.5,0.6,3.7,1.3,5.4,1.3c0.7,0,2-0.1,2.1-1.1c0-0.5-0.8-0.9-1.4-1.1
				c-0.7-0.2-1.6-0.5-2.6-0.8c-1.8-0.7-3.5-1.7-3.4-4c0-3.2,3.1-4.5,6.9-4.5c1.6,0,4,0.3,5.6,0.8v3.3c-0.6-0.1-2-0.5-2.9-0.7
				c-0.8-0.2-1.6-0.3-2.4-0.3c-0.8,0-2.3,0.1-2.3,1.2c0,0.6,0.8,0.9,1.4,1.1c0.7,0.2,1.6,0.5,2.6,0.8c1.8,0.7,3.5,1.7,3.5,3.9
				c0,3.2-3.3,4.4-7,4.4C216.8,743.6,214.9,743.4,213.2,742.7z"/>
			<path class="smk-kio5" d="M295.6,737.4c0.1-4.7,2.3-7.2,8.1-7.1c5.8,0.1,7.9,2.7,7.9,7.4c-0.1,4.8-2.2,7.2-8.1,7.1
				C297.7,744.6,295.5,742,295.6,737.4z M303.6,733.7c-1.4,0-2.1,0.6-2.4,1.4c-0.1,0.4-0.2,0.8-0.2,1.2s0,0.8,0,1.2s0,0.8,0,1.2
				s0.1,0.8,0.2,1.2c0.3,0.8,1,1.5,2.4,1.5s2.1-0.6,2.4-1.4c0.1-0.4,0.2-0.8,0.2-1.2s0-0.8,0-1.2s0-0.8,0-1.2s-0.1-0.8-0.2-1.2
				C305.7,734.3,305,733.7,303.6,733.7z"/>
			<path class="smk-kio5" d="M293.7,730.8c0-0.2-0.2-0.5-0.4-0.5l0,0l0,0l-4.8-0.1l0,0l0,0c-0.2,0-0.5,0.2-0.5,0.4l0,0l0,0l-0.2,13.2
				c0,0.2,0.2,0.5,0.4,0.5l4.9,0.1c0.2,0,0.4-0.2,0.5-0.4l0,0L293.7,730.8L293.7,730.8L293.7,730.8z"/>
			<path class="smk-kio5" d="M285.8,744.1L285.8,744.1L285.8,744.1l-4-7.5l4-5.9l0,0v-0.1c0-0.1-0.1-0.2-0.2-0.2l-5-0.1l0,0l0,0
				c-0.2,0-0.3,0.1-0.4,0.2l0,0l-3.7,6l0.1-5.8l0,0c0-0.2-0.2-0.5-0.4-0.5l-4.6-0.1c-0.2,0-0.4,0.2-0.4,0.4l0,0l-0.2,13.6l5.1,0.1
				l0,0l0,0c0.2,0,0.5-0.2,0.5-0.4l0,0l0.1-5.5l3.4,5.8l0,0c0.1,0.1,0.2,0.2,0.4,0.2l0,0l5.4,0.1l0,0
				C285.7,744.3,285.8,744.2,285.8,744.1z"/>
			<path class="smk-kio5" d="M246.8,730.1c0-0.2-0.2-0.4-0.4-0.4l0,0l-4.9-0.1l0,0c-0.2,0-0.3,0.1-0.4,0.2l0,0l0,0l0,0
				c-1.2,2.5-1.8,3.5-3,6.3h-1.7c-1.1-2.8-1.7-3.9-2.8-6.4l0,0c-0.1-0.2-0.2-0.3-0.4-0.3l-4.9-0.1l0,0c-0.2,0-0.5,0.2-0.5,0.4l0,0
				l-0.2,13.2c0,0.2,0.2,0.5,0.4,0.5l0,0h3.5c0.2,0,0.5-0.2,0.5-0.4l0,0l0.1-4.1v-2.1h0.7c0.9,2.4,1.7,4.4,2.6,6.4l0,0
				c0.1,0.2,0.2,0.3,0.4,0.3l0,0h2.6l0,0c0.2,0,0.3-0.1,0.4-0.3l0,0c0.9-2,1.9-4,2.8-6.3h0.7c0,2.1-0.1,4.1-0.1,5.9l0,0
				c0,0.1,0.1,0.2,0.2,0.2c0.1,0,0.2-0.1,0.2-0.1l0,0l4.3-10.8L246.8,730.1L246.8,730.1z"/>
			<polygon class="smk-kio5" points="244.1,743.7 249.3,743.8 254.8,729.8 249.6,729.7 			"/>
			<polygon class="smk-kio5" points="259.9,743.9 254.7,743.9 249.6,729.7 254.8,729.8 			"/>
			<polygon class="smk-kio5" points="249.6,729.7 252.1,736.7 251.8,737.2 249.3,730.4 			"/>
			<path class="smk-kio5" d="M268.8,734.6c0-3.6-3.1-4.7-7.3-4.7l-4.1-0.1c-0.2,0-0.5,0.2-0.5,0.4c0,0.1,0,0.1,0,0.2l0,0l0.9,2.5h2h0.6
				h1.1c1.6,0,1.9,0.6,1.9,1.8s-0.3,1.8-2,1.8h-1.6l0,0h-0.6l0.6,1.7l0.2,0.5l1.9,5.1l0,0c0.1,0.1,0.2,0.2,0.4,0.2l0,0l0,0l5,0.1
				c0.1,0,0.2-0.1,0.2-0.2c0-0.1,0-0.1,0-0.1l0,0l-1.9-4.9C268.1,737.8,268.8,736.5,268.8,734.6z"/>
		</g>
	</g>
</g>
</svg>
