<svg xmlns="http://www.w3.org/2000/svg" viewBox="0 0 138.2 138.2">
  <defs>
    <style>
      .cls-1 {
        fill: #fff;
      }

      .cls-2 {
        fill: #2c83e6;
      }

      .cls-3 {
        fill: #e8f0fa;
      }

      .cls-4 {
        fill: #d8e0ea;
      }

      .cls-5 {
        fill: none;
        stroke: #bec8d2;
        stroke-linecap: round;
        stroke-linejoin: round;
        stroke-width: 2px;
      }
    </style>
  </defs>
  <title>marketing_automation_360</title>
  <g id="Layer_2" data-name="Layer 2">
    <g id="Layer_1-2" data-name="Layer 1">
      <g id="Layer_2-2" data-name="Layer 2">
        <g id="Isolation_Mode" data-name="Isolation Mode">
          <circle class="cls-1" cx="69.1" cy="69.1" r="69.1"/>
        </g>
      </g>
      <path class="cls-2" d="M69.1,7.7A61.4,61.4,0,1,1,7.7,69.1,61.47,61.47,0,0,1,69.1,7.7m0-2a63.4,63.4,0,1,0,63.4,63.4A63.4,63.4,0,0,0,69.1,5.7Z"/>
      <g>
        <path class="cls-3" d="M69.1,109.76a62.76,62.76,0,0,1-8.06-.53V82.78a4.62,4.62,0,0,0-.66-2.38l-28.8-48a2.62,2.62,0,0,1,2.25-4h70.53a2.62,2.62,0,0,1,2.25,4l-28.8,48a4.61,4.61,0,0,0-.66,2.38v26.45A62.77,62.77,0,0,1,69.1,109.76Z"/>
        <path class="cls-2" d="M104.36,29.44a1.62,1.62,0,0,1,1.39,2.46L77,79.89a5.62,5.62,0,0,0-.8,2.89v25.57a60.6,60.6,0,0,1-14.11,0V82.78a5.62,5.62,0,0,0-.8-2.89l-28.8-48a1.62,1.62,0,0,1,1.39-2.46h70.53m0-2H33.84a3.62,3.62,0,0,0-3.11,5.49l28.8,48A3.62,3.62,0,0,1,60,82.78v27.32a63,63,0,0,0,18.11,0V82.78a3.62,3.62,0,0,1,.52-1.86l28.8-48a3.62,3.62,0,0,0-3.11-5.49Z"/>
      </g>
      <g>
        <path class="cls-1" d="M69.1,90h-.66a1.89,1.89,0,0,1-1.81-1.65l-.26-2.1a17.31,17.31,0,0,1-3-.77L62,87.22a1.89,1.89,0,0,1-2.36.54c-.34-.17-.68-.35-1-.55l-.57-.34a1.89,1.89,0,0,1-.74-2.34l.82-1.95a17.47,17.47,0,0,1-2.25-2.2l-2,.85a1.87,1.87,0,0,1-.73.15,1.89,1.89,0,0,1-1.58-.85q-.31-.48-.6-1L50.66,79a1.89,1.89,0,0,1,.52-2.4l1.68-1.27a17.38,17.38,0,0,1-.85-3L49.86,72a1.89,1.89,0,0,1-1.65-1.77q0-.57,0-1.15,0-.33,0-.66a1.89,1.89,0,0,1,1.65-1.81l2.1-.26a17.37,17.37,0,0,1,.77-3L51,62a1.89,1.89,0,0,1-.54-2.36q.26-.51.55-1l.34-.57a1.89,1.89,0,0,1,2.34-.75l1.95.82A17.56,17.56,0,0,1,57.8,55.9l-.85-2a1.89,1.89,0,0,1,.71-2.31c.32-.21.64-.41,1-.6l.58-.32a1.92,1.92,0,0,1,.89-.22,1.87,1.87,0,0,1,1.5.75l1.28,1.69a16.3,16.3,0,0,1,3-.86l.27-2.15A1.89,1.89,0,0,1,68,48.21q.57,0,1.15,0h.66a1.89,1.89,0,0,1,1.81,1.65l.26,2.1a17.37,17.37,0,0,1,3,.77L76.19,51a1.89,1.89,0,0,1,2.36-.54q.51.26,1,.55l.56.34a1.89,1.89,0,0,1,.75,2.34l-.82,1.95a17.56,17.56,0,0,1,2.25,2.2l2-.85a1.89,1.89,0,0,1,2.31.71q.31.48.6,1l.32.58a1.89,1.89,0,0,1-.52,2.4l-1.68,1.27a17.36,17.36,0,0,1,.85,3l2.15.27A1.89,1.89,0,0,1,90,67.95q0,.57,0,1.15,0,.33,0,.66a1.89,1.89,0,0,1-1.65,1.81l-2.1.26a17.34,17.34,0,0,1-.77,3l1.73,1.31a1.89,1.89,0,0,1,.54,2.36c-.17.34-.35.68-.55,1l-.34.56a1.89,1.89,0,0,1-1.61.89h0a1.88,1.88,0,0,1-.73-.15l-1.95-.82A17.45,17.45,0,0,1,80.4,82.3l.85,2a1.89,1.89,0,0,1-.71,2.31q-.48.31-1,.6l-.58.32a1.93,1.93,0,0,1-.89.22,1.87,1.87,0,0,1-1.5-.75l-1.28-1.69a16.33,16.33,0,0,1-3,.86L72,88.34A1.89,1.89,0,0,1,70.25,90Q69.68,90,69.1,90Zm0-26.12a5.2,5.2,0,1,0,5.2,5.2A5.2,5.2,0,0,0,69.1,63.9Z"/>
        <path class="cls-2" d="M69.1,49.17h.62a.89.89,0,0,1,.86.78l.27,2.18a.88.88,0,0,0,.73.76,16.26,16.26,0,0,1,3.06.77.84.84,0,0,0,.29,0,.89.89,0,0,0,.7-.35L77,51.58a.89.89,0,0,1,.71-.35.9.9,0,0,1,.4.1q.49.24,1,.52l.53.32a.89.89,0,0,1,.36,1.1l-.85,2a.88.88,0,0,0,.25,1,16.48,16.48,0,0,1,2.25,2.2.87.87,0,0,0,.66.3.9.9,0,0,0,.35-.07l2.08-.88A.88.88,0,0,1,85,57.8a.89.89,0,0,1,.75.4q.3.45.57.93l.3.55a.89.89,0,0,1-.24,1.13l-1.75,1.33a.88.88,0,0,0-.3,1,16.26,16.26,0,0,1,.85,3,.9.9,0,0,0,.78.72l2.22.28A.89.89,0,0,1,89,68c0,.36,0,.73,0,1.09,0,.21,0,.42,0,.62a.89.89,0,0,1-.78.86l-2.18.27a.88.88,0,0,0-.76.73,16.27,16.27,0,0,1-.77,3.06.88.88,0,0,0,.3,1L86.62,77a.89.89,0,0,1,.25,1.11q-.24.49-.52,1L86,79.6a.9.9,0,0,1-.76.43.88.88,0,0,1-.34-.07l-2-.85a.9.9,0,0,0-.35-.07.86.86,0,0,0-.68.32,16.48,16.48,0,0,1-2.2,2.25.88.88,0,0,0-.23,1l.88,2.08A.89.89,0,0,1,80,85.78q-.45.3-.93.57l-.55.3a.91.91,0,0,1-.43.11.88.88,0,0,1-.71-.35l-1.33-1.75a.89.89,0,0,0-.7-.35.85.85,0,0,0-.31.06,16.25,16.25,0,0,1-3,.85.9.9,0,0,0-.72.78L71,88.22a.89.89,0,0,1-.84.78c-.36,0-.73,0-1.09,0h-.62a.89.89,0,0,1-.86-.78l-.27-2.18a.88.88,0,0,0-.73-.76,16.27,16.27,0,0,1-3.06-.77.84.84,0,0,0-.29,0,.89.89,0,0,0-.7.35l-1.36,1.8a.89.89,0,0,1-.71.35.9.9,0,0,1-.4-.1q-.49-.24-1-.52L58.6,86a.89.89,0,0,1-.36-1.1l.85-2a.88.88,0,0,0-.25-1,16.48,16.48,0,0,1-2.25-2.2.87.87,0,0,0-.66-.3.9.9,0,0,0-.35.07l-2.08.88a.88.88,0,0,1-.34.07.89.89,0,0,1-.75-.4q-.3-.45-.57-.93l-.3-.55a.89.89,0,0,1,.24-1.13l1.75-1.33a.88.88,0,0,0,.3-1A16.26,16.26,0,0,1,53,72a.9.9,0,0,0-.78-.72L50,71a.89.89,0,0,1-.78-.84c0-.36,0-.73,0-1.09,0-.21,0-.42,0-.62a.89.89,0,0,1,.78-.86l2.18-.27a.88.88,0,0,0,.76-.73,16.27,16.27,0,0,1,.77-3.06.88.88,0,0,0-.3-1l-1.8-1.36a.89.89,0,0,1-.25-1.11q.24-.49.52-1l.32-.53a.9.9,0,0,1,.76-.43.88.88,0,0,1,.34.07l2,.85a.9.9,0,0,0,.35.07.86.86,0,0,0,.68-.32,16.47,16.47,0,0,1,2.2-2.25.88.88,0,0,0,.23-1l-.88-2.08a.89.89,0,0,1,.34-1.09q.45-.3.93-.57l.55-.3a.91.91,0,0,1,.43-.11.88.88,0,0,1,.71.35l1.33,1.75a.89.89,0,0,0,.7.35.85.85,0,0,0,.31-.06,16.26,16.26,0,0,1,3-.85.9.9,0,0,0,.72-.78L67.17,50a.89.89,0,0,1,.84-.78c.36,0,.73,0,1.09,0m0,26.12a6.2,6.2,0,1,0-6.2-6.2,6.2,6.2,0,0,0,6.2,6.2m0-28.12c-.39,0-.8,0-1.21,0a2.89,2.89,0,0,0-2.71,2.52L65,51.18a18.35,18.35,0,0,0-1.77.5l-.83-1.1a2.9,2.9,0,0,0-3.66-.8l-.61.34c-.34.2-.69.41-1,.63A2.89,2.89,0,0,0,56,54.29l.57,1.34q-.67.62-1.28,1.31L54,56.41a2.89,2.89,0,0,0-3.57,1.14l-.36.6c-.2.34-.39.7-.57,1.06a2.89,2.89,0,0,0,.83,3.61l1.16.88a18.36,18.36,0,0,0-.45,1.78l-1.37.17a2.88,2.88,0,0,0-2.53,2.77q0,.35,0,.7c0,.39,0,.8,0,1.21A2.89,2.89,0,0,0,49.73,73l1.44.18a18.35,18.35,0,0,0,.5,1.77l-1.1.83a2.88,2.88,0,0,0-.8,3.66l.34.61c.2.34.41.69.63,1a2.89,2.89,0,0,0,3.54,1.08l1.34-.57q.62.67,1.31,1.28l-.54,1.27a2.88,2.88,0,0,0,1.14,3.57l.6.36c.34.2.7.39,1.06.57a2.89,2.89,0,0,0,3.61-.83l.88-1.16a18.34,18.34,0,0,0,1.78.45l.17,1.37A2.88,2.88,0,0,0,68.4,91h.7c.39,0,.8,0,1.21,0A2.89,2.89,0,0,0,73,88.47L73.19,87a18.34,18.34,0,0,0,1.77-.5l.83,1.1a2.9,2.9,0,0,0,3.66.8l.61-.34c.34-.2.69-.41,1-.63a2.89,2.89,0,0,0,1.08-3.54l-.57-1.34q.67-.62,1.28-1.31l1.27.54a2.89,2.89,0,0,0,3.57-1.14l.36-.6c.2-.34.39-.7.57-1.06a2.89,2.89,0,0,0-.83-3.61l-1.16-.88a18.34,18.34,0,0,0,.45-1.78l1.37-.17A2.88,2.88,0,0,0,91,69.8q0-.35,0-.7c0-.39,0-.8,0-1.21a2.89,2.89,0,0,0-2.52-2.71L87,65a18.35,18.35,0,0,0-.5-1.77l1.1-.83a2.88,2.88,0,0,0,.8-3.66l-.34-.61c-.2-.34-.41-.69-.63-1A2.89,2.89,0,0,0,83.91,56l-1.34.57q-.62-.67-1.31-1.28L81.79,54a2.88,2.88,0,0,0-1.14-3.57l-.6-.36c-.34-.2-.7-.39-1.06-.57a2.89,2.89,0,0,0-3.61.83l-.88,1.16a18.34,18.34,0,0,0-1.78-.45l-.17-1.37a2.88,2.88,0,0,0-2.77-2.53Zm0,26.12a4.2,4.2,0,1,1,4.2-4.2,4.2,4.2,0,0,1-4.2,4.2Z"/>
      </g>
      <g>
        <circle class="cls-4" cx="69.1" cy="69.1" r="4.43"/>
        <path class="cls-2" d="M69.1,65.67a3.43,3.43,0,1,1-3.43,3.43,3.44,3.44,0,0,1,3.43-3.43m0-2a5.43,5.43,0,1,0,5.43,5.43,5.43,5.43,0,0,0-5.43-5.43Z"/>
      </g>
      <g>
        <circle class="cls-4" cx="69.1" cy="69.1" r="4.43"/>
        <path class="cls-2" d="M69.1,65.67a3.43,3.43,0,1,1-3.43,3.43,3.44,3.44,0,0,1,3.43-3.43m0-2a5.43,5.43,0,1,0,5.43,5.43,5.43,5.43,0,0,0-5.43-5.43Z"/>
      </g>
      <g>
        <circle class="cls-4" cx="69.1" cy="69.1" r="4.43"/>
        <path class="cls-2" d="M69.1,65.67a3.43,3.43,0,1,1-3.43,3.43,3.44,3.44,0,0,1,3.43-3.43m0-2a5.43,5.43,0,1,0,5.43,5.43,5.43,5.43,0,0,0-5.43-5.43Z"/>
      </g>
      <g>
        <circle class="cls-4" cx="69.1" cy="69.1" r="4.43"/>
        <path class="cls-2" d="M69.1,65.67a3.43,3.43,0,1,1-3.43,3.43,3.44,3.44,0,0,1,3.43-3.43m0-2a5.43,5.43,0,1,0,5.43,5.43,5.43,5.43,0,0,0-5.43-5.43Z"/>
      </g>
      <g>
        <circle class="cls-4" cx="69.1" cy="69.1" r="4.43"/>
        <path class="cls-2" d="M69.1,65.67a3.43,3.43,0,1,1-3.43,3.43,3.44,3.44,0,0,1,3.43-3.43m0-2a5.43,5.43,0,1,0,5.43,5.43,5.43,5.43,0,0,0-5.43-5.43Z"/>
      </g>
      <line class="cls-5" x1="62.76" y1="58.68" x2="75.44" y2="79.52"/>
    </g>
  </g>
</svg>
