<svg xmlns="http://www.w3.org/2000/svg" viewBox="0 0 138.2 138.2">
  <defs>
    <style>
      .smk-payment-gateway-1 {
        fill: #fff;
      }

      .smk-payment-gateway-2 {
        fill: #d8e0ea;
      }

      .smk-payment-gateway-3 {
        fill: #2c83e6;
      }

      .smk-payment-gateway-4 {
        fill: #e8f0fa;
      }
    </style>
  </defs>
  <title>payment_gateway_2</title>
  <g id="Layer_2" data-name="Layer 2">
    <g id="Layer_1-2" data-name="Layer 1">
      <g id="Layer_2-2" data-name="Layer 2">
        <g id="Isolation_Mode" data-name="Isolation Mode">
          <circle class="smk-payment-gateway-1" cx="69.1" cy="69.1" r="69.1"/>
        </g>
      </g>
      <g>
        <g>
          <path class="smk-payment-gateway-2" d="M99.43,109.65q-.31,0-.63,0l-72.11-7A6.35,6.35,0,0,1,21,95.66l4.22-43.27a6.31,6.31,0,0,1,6.3-5.72q.31,0,.63,0l72.11,7A6.35,6.35,0,0,1,110,60.66l-4.22,43.27a6.31,6.31,0,0,1-6.3,5.72Z"/>
          <path class="smk-payment-gateway-3" d="M31.52,47.57l.54,0,72.11,7a5.43,5.43,0,0,1,4.88,5.94l-4.22,43.27a5.41,5.41,0,0,1-5.4,4.91l-.54,0-72.11-7a5.43,5.43,0,0,1-4.88-5.94l4.22-43.27a5.41,5.41,0,0,1,5.4-4.91m0-1.81a7.25,7.25,0,0,0-7.2,6.54L20.1,95.57a7.25,7.25,0,0,0,6.51,7.92l72.11,7q.36,0,.71,0a7.25,7.25,0,0,0,7.2-6.54l4.22-43.27a7.25,7.25,0,0,0-6.51-7.92l-72.11-7q-.36,0-.71,0Z"/>
        </g>
        <path class="smk-payment-gateway-3" d="M69.1,7.51A61.59,61.59,0,1,1,7.51,69.1,61.66,61.66,0,0,1,69.1,7.51m0-1.81a63.4,63.4,0,1,0,63.4,63.4A63.4,63.4,0,0,0,69.1,5.7Z"/>
        <g>
          <path class="smk-payment-gateway-4" d="M12.95,95.37a5.42,5.42,0,0,1-.57,0,62.52,62.52,0,0,1,1.84-56.12H89a6.35,6.35,0,0,1,6.34,6.34V89A6.35,6.35,0,0,1,89,95.37Z"/>
          <path class="smk-payment-gateway-3" d="M89,40.12a5.44,5.44,0,0,1,5.43,5.43V89A5.44,5.44,0,0,1,89,94.46H13A61,61,0,0,1,7.51,69.1a61.64,61.64,0,0,1,7.25-29H89m0-1.81H13.68a63.42,63.42,0,0,0-1.92,57.86,7.26,7.26,0,0,0,1.18.11H89A7.25,7.25,0,0,0,96.27,89V45.55A7.25,7.25,0,0,0,89,38.31Z"/>
        </g>
        <g>
          <path class="smk-payment-gateway-1" d="M6.94,62.76A62.3,62.3,0,0,1,9.57,50.08H95.37V62.76Z"/>
          <path class="smk-payment-gateway-3" d="M94.46,51V61.85H8A61.4,61.4,0,0,1,10.24,51H94.46m1.81-1.81H8.91a63.07,63.07,0,0,0-3,14.49H96.27V49.17Z"/>
        </g>
        <path class="smk-payment-gateway-3" d="M52.8,79.06H17.47a.91.91,0,1,1,0-1.81H52.8a.91.91,0,0,1,0,1.81Z"/>
        <path class="smk-payment-gateway-3" d="M52.8,86.31H17.47a.91.91,0,1,1,0-1.81H52.8a.91.91,0,1,1,0,1.81Z"/>
        <path class="smk-payment-gateway-3" d="M81.78,76.35a5.43,5.43,0,1,1-4.07,9,1.81,1.81,0,0,0-2.72,0,5.43,5.43,0,1,1,0-7.17,1.81,1.81,0,0,0,2.72,0,5.44,5.44,0,0,1,4.07-1.85m0-1.81A7.22,7.22,0,0,0,76.35,77a7.25,7.25,0,1,0,0,9.56,7.24,7.24,0,1,0,5.43-12Z"/>
      </g>
    </g>
  </g>
</svg>
